<?xml version="1.0" encoding="UTF-8"?>
<svg id="Layer_2" data-name="Layer 2" xmlns="http://www.w3.org/2000/svg" viewBox="0 0 14.99 14.3">
  <defs>
    <style>
      .cls-1 {
        fill: #1dc2c0;
      }
    </style>
  </defs>
  <g id="BACKGROUND">
    <path class="cls-1" d="M14.86,6.25c-.04-.89-.3-1.71-.79-2.48-.59-1-1.39-1.8-2.39-2.39-.11-.06-.21-.12-.32-.19.11.09.23.18.34.27-.68-.51-1.38-.95-2.31-1.17-.78-.18-1.58-.21-2.37-.28-.62.08-1.24.17-1.87.25-.56.24-1.12.47-1.68.71-.47.37-.95.73-1.42,1.1-.68.64-1.17,1.39-1.45,2.26-.32.55-.48,1.14-.48,1.77-.17.62-.17,1.24,0,1.87,0,.63.16,1.22.48,1.77.28.87.77,1.62,1.45,2.26.57.47,1.14.95,1.76,1.34,1.11.65,2.32.97,3.6.98.37.02.73-.02,1.09-.12,1.04-.14,1.94-.38,2.85-.98.41-.27,1.21-.84,1.67-1.33.83-.83,1.4-1.81,1.72-2.94.28-.89.32-1.77.12-2.66Z"/>
  </g>
</svg>