<?xml version="1.0" encoding="UTF-8"?>
<svg xmlns="http://www.w3.org/2000/svg" viewBox="0 0 127.71 125.84">
  <defs>
    <style>
      .cls-1 {
        fill: #28c0c0;
      }

      .cls-2 {
        fill: #ffe463;
      }

      .cls-3 {
        isolation: isolate;
      }

      .cls-4 {
        fill: #7fd6cf;
        mix-blend-mode: multiply;
        opacity: .6;
      }

      .cls-5 {
        fill: #7b4fd6;
      }
    </style>
  </defs>
  <g class="cls-3">
    <g id="Layer_2" data-name="Layer 2">
      <g id="OBJECTS">
        <g>
          <g>
            <path class="cls-5" d="M68.31,52.41c.37.07.66.1.9.11-.93-.3-1.57-.38-.9-.11Z"/>
            <path class="cls-5" d="M120.44,30.19c-8.76-13.72-23.51-24.08-39.27-28.14C46.86-6.79,7.14,13.69,1.27,49.42c-6.98,33.37,15.58,67.42,49.01,74.95,33.35,7.5,63.91-14.59,74.01-45.86,5.01-15.52,5.14-34.23-3.85-48.32Z"/>
            <path class="cls-5" d="M52.22,57.54s0,0,0,0c0,0,0,0,0,0,0,0,0,0,0,.01Z"/>
            <path class="cls-5" d="M52.62,58.27c0-.06-.01-.13-.02-.19-.01.03-.02.06-.04.09.02.03.04.06.06.09Z"/>
          </g>
          <path class="cls-1" d="M120.44,30.19c-8.76-13.72-23.51-24.08-39.27-28.14C46.86-6.79,7.14,13.69,1.27,49.42c-6.98,33.37,15.58,67.42,49.01,74.95,33.35,7.5,63.91-14.59,74.01-45.86,5.01-15.52,5.14-34.23-3.85-48.32Z"/>
          <g>
            <path class="cls-2" d="M9.05,80.5c-1.6-2.59-4.59-5.48-7.92-7.17.5,2.56,1.15,5.09,1.95,7.57.17.16.35.3.52.47,2.21,2.21,3.17,4.63,2.34,6.82.52,1.12,1.06,2.22,1.64,3.3,3.16-2.64,4.12-6.67,1.46-10.98Z"/>
            <path class="cls-2" d="M38.73,27.05c-8.5,4.27-16.83,10.54-19.88,19.94-4.3,13.28,4.28,23.56,8.7,35.29,2.29,6.09,2.17,12.5-1.39,18.11-1.49,2.36-3.59,4.5-6.23,5.55-.5.2-1,.32-1.5.41,1.66,1.71,3.41,3.33,5.25,4.85,4.76-2.88,8.76-8.04,10.37-12.43,5.26-14.33-5.22-24.61-8.94-37.62-4.06-14.18,6.57-23.32,18.06-28.96,8.92-4.38,18.17-8.51,25.76-15.06,3.63-3.14,6.8-7.08,7.75-11.9.3-1.55.32-2.9.12-4.13-1.48-.27-2.97-.5-4.46-.66-.14,13.34-24.5,22.02-33.61,26.61Z"/>
            <path class="cls-2" d="M15.27,71.91c-2.92-4.84-7.34-9.51-12.87-11.23-.76-.24-1.56-.4-2.37-.5-.05,2.13,0,4.26.17,6.36.38.09.78.2,1.21.37,3.83,1.5,6.82,4.97,8.91,8.38,3.76,6.16,6.02,15.68-.47,20.06.53.85,1.09,1.69,1.66,2.52,10.09-4.07,9.06-17.18,3.76-25.96Z"/>
            <path class="cls-2" d="M88.72,110.71c-9.19-3.6-14.13,7.76-16.74,14.47.98-.15,1.95-.32,2.91-.51,2.46-4.17,6.78-10.9,11.42-9.56,2.22.64,3.03,2.4,3.11,4.57,1.62-.8,3.22-1.66,4.77-2.6-.58-2.76-2.23-5.1-5.48-6.37Z"/>
            <path class="cls-2" d="M13.25,35.78c3.41-3.58,6.43-7.63,10.47-10.54,3.78-2.73,8.4-3.84,12.75-5.35,9.37-3.25,19.09-6.89,26.94-13.11,2.29-1.82,4.43-4.07,6.13-6.59-2.79-.2-5.58-.23-8.36-.08-1.67,1.67-3.58,3.13-5.52,4.42-7.31,4.87-15.62,7.94-23.87,10.82-7.89,2.76-13.51,6.36-19.11,12.66-2.31,2.6-4.54,5.1-6.94,7.1-1.14,2.4-2.12,4.89-2.9,7.48,3.64-1,7.06-3.31,10.39-6.81Z"/>
            <path class="cls-2" d="M83.98,100.69c-12.35,1.88-19.27,14.84-26.28,24.85,1.82.18,3.64.28,5.43.28,4.26-5.37,8.43-10.83,13.51-15.43,4.19-3.8,9.97-6.71,15.34-3.28,3.26,2.08,4.52,5.15,4.62,8.46,1.54-1.03,3.05-2.12,4.5-3.28-1.7-7.05-8.84-12.87-17.12-11.6Z"/>
            <path class="cls-2" d="M109.28,104.6c-1.47-2.99-3.39-5.65-5.26-7.42-7.02-6.66-17.63-9.54-26.8-5.91-8.18,3.24-13.31,11.14-18.29,17.97-3.39,4.65-7.29,10.54-12.33,14.17,1.21.35,2.44.68,3.68.96.45.1.91.18,1.36.27,7.39-5.57,12.87-15.31,18.76-21.64,6.52-7.01,15.16-9.97,24.08-5.2,3.95,2.11,7.26,5.45,9.07,9.57.33.76.56,1.5.72,2.23,1.75-1.57,3.42-3.23,5.01-4.99Z"/>
            <path class="cls-2" d="M121.95,44c.95-2.23,1.6-4.5,2.06-6.81-.77-1.89-1.66-3.73-2.69-5.5-1.75,7.3-5.01,13.66-9.86,19.82-4.13,5.24-8.15,10.66-7.68,17.7.59,8.66,8.16,15.93,16.49,19.15.86-1.75,1.66-3.54,2.39-5.36-3.21-1.3-6.28-2.8-8.95-5.33-5.11-4.84-5.92-11.33-2.29-17.4,3.37-5.63,7.92-10.12,10.53-16.27Z"/>
            <path class="cls-2" d="M45.62,110c8.57-10.74,1.48-22.08-3.89-32.31-3.64-6.93-4.35-13.36.42-20.05,4.37-6.13,11.23-9.76,17.73-13.19,10.88-5.73,19.28-11.68,25.75-22.3,2.73-4.49,5.52-10.56,6.16-16.33-2.03-.92-4.09-1.73-6.18-2.43.51,6.57-4.64,14.85-7.82,19.44-6.53,9.42-15.98,13.67-25.68,19.19-9.58,5.45-20.11,14.43-19.35,26.6.7,11.12,11.45,18.95,11.62,29.99.13,8.64-7.01,13.85-14.92,16.87,1.57,1.04,3.2,2,4.86,2.9,4.5-2,8.53-4.91,11.3-8.37Z"/>
            <path class="cls-2" d="M99.53,80.47c-6.89-12.44,4.12-27.15,9.15-38.21,2.8-6.17,5.17-13.06,5.7-19.99-1.92-2.14-3.99-4.16-6.19-6.04.44,3.58-.09,7.39-.81,10.86-2.72,13.15-11.65,23.84-14.94,36.77-2.44,9.57-.36,19.42,7.38,25.93,4.45,3.75,9.86,5.96,15.51,7.06.98-1.44,1.91-2.92,2.79-4.44-7.52-1.79-14.92-5.31-18.59-11.94Z"/>
            <path class="cls-2" d="M122.58,63.88c1.01-3.21,2.95-6.34,5.06-9.3-.08-1.81-.24-3.61-.49-5.4-5.07,4.52-10.08,9.95-10.74,16.87-.54,5.72,2.93,10.42,7.58,13.33.1-.29.21-.58.3-.87.55-1.71,1.03-3.46,1.46-5.23-2.75-2.26-4.55-5.02-3.17-9.4Z"/>
            <path class="cls-2" d="M67.86,74.71c4.92.58,8.78-6,10.89-9.49,2.13-3.52,6.24-9.3,5.69-13.48-.14-1.1-1.05-1.64-1.95-1.34-.01-.67-.8-1.18-1.49-.62-5.52,4.42-11.69,7.33-15.87,13.37-2.48,3.57-3.21,10.87,2.73,11.56ZM71.62,62.45c2.34-2.54,4.81-4.93,7.16-7.44-.69,1.36-1.32,2.78-2,4-1.79,3.2-4.24,8.78-7.64,10.6-.83.45-1.4.49-1.43-1.2-.04-2.03,2.68-4.62,3.91-5.96Z"/>
            <path class="cls-2" d="M59.85,95.52c8.63-9.65,21.75-14.58,28.47-26.02,3.79-6.46,5.91-14.3,6.97-21.65.93-6.45,1.43-23.91.18-24.55.17-.32-12.36,12.73-19.8,18.19-6.66,4.89-14.5,8.45-20.05,14.72-4.2,4.74-5.22,10.27-3.51,16.32,1.75,6.21,6.96,13.18,3.34,19.6-1.52,2.7,2.22,5.84,4.41,3.4ZM61.67,58.08c6.12-5.77,13.97-9.31,20.14-15.07,3.1-2.9,5.64-6.16,7.9-9.62.06,2.73.41,5.52.41,8.16-.03,7.93-2.24,16.83-5.85,23.9-4.67,9.17-13.89,14.23-21.9,20.4-.23-2.59-1.03-5.2-2.08-7.85-3.02-7.62-5.41-13.51,1.37-19.91Z"/>
          </g>
          <path class="cls-4" d="M77.55,87.38c-2.35-.18-4.93.22-7.31.3-2.53.09-5.03.19-7.56.16-.26,0-1.82-.09-1.7-.03-1.31-.2-2.62-.54-3.88-.89-.27-.08-1.76-.58-2.25-.72-.45-.27-2.44-1.28-2.46-1.29-.9-.52-1.76-1.09-2.64-1.64-.3-.19-.88-.63-1.09-.78-1.67-1.39-3.24-2.93-4.7-4.53-.13-.14-.96-1.09-1.31-1.48-.31-.48-1.58-2.25-1.59-2.26-5.14-7.91-9.04-16.44-10.51-25.82-.61-3.92-1.13-8.31-.77-12.2.42-4.51.43-9.84-4.78-11.54-5.84-1.9-11.04,3.72-13.85,8.07-3.87,5.98-5.02,12.96-5.56,19.94-.97,12.77,4.31,28.67,11.33,39.24,7.52,11.3,18.06,20.46,30.97,24.98,6.9,2.41,14.77,3.33,22.05,2.91,5.11-.29,11.09-.44,15.49-3.28,13.45-8.7,7.52-27.96-7.89-29.13Z"/>
          <path class="cls-4" d="M60.98,22.24c-.52-.99-1.25-1.87-2.04-2.65-.26-.26-.53-.5-.81-.73-2.19-2.32-5.27-3.72-8.52-3.72-2.11,0-4.08.54-5.9,1.6-1.76,1.04-3.16,2.44-4.2,4.2-.4.82-.73,1.68-1.16,2.5-2.1,3.97-2.32,8.57,0,12.53,1.1,1.86,2.59,3.35,4.45,4.45,1.94,1.12,4.02,1.69,6.26,1.69,2.74-.19,4.57-.5,6.97-1.9,2.98-1.74,5.31-4.54,6.23-7.91.94-3.43.33-6.95-1.3-10.05Z"/>
        </g>
      </g>
    </g>
  </g>
</svg>