<?xml version="1.0" encoding="UTF-8"?>
<svg xmlns="http://www.w3.org/2000/svg" viewBox="0 0 83.95 83.85">
  <defs>
    <style>
      .cls-1 {
        fill: #974829;
      }

      .cls-2 {
        fill: #f4dfb1;
      }

      .cls-3 {
        isolation: isolate;
      }

      .cls-4 {
        fill: #e1ad88;
        mix-blend-mode: multiply;
      }

      .cls-5 {
        fill: #f98f6a;
      }
    </style>
  </defs>
  <g class="cls-3">
    <g id="Layer_2" data-name="Layer 2">
      <g id="OBJECTS">
        <g>
          <path class="cls-5" d="M73.03,14.47C62.52,1.75,42.86-3.26,27.4,2.17,18.27,5.37,9.42,11.17,4.64,19.86-.19,28.64-1.07,38.79,1.17,48.47c2.01,8.7,7.07,16.99,13.92,23.16,5.5,5.69,12.63,9.82,20.47,11.39,16.64,3.33,33.8-3.46,42.67-18.21,9.74-16.19,6.43-36.28-5.19-50.35Z"/>
          <g>
            <path class="cls-2" d="M4.32,27.05c5.07-1.7,10.02-4.01,14.47-6.99,7.22-4.83,12.57-11.4,14.83-19.49-2.12.36-4.21.88-6.22,1.59-1.32.46-2.64.99-3.94,1.56-3.34,3.38-7.17,6.27-11.51,8.59-.95.51-1.92.98-2.9,1.43-1.69,1.85-3.19,3.89-4.41,6.11-1.44,2.62-2.52,5.36-3.28,8.18,1.02-.32,2.01-.67,2.96-.99Z"/>
            <path class="cls-2" d="M16.95,61.57c8.72-1.83,17.95-1.64,26.5-4.24,9.82-2.99,16.44-10.66,22.27-18.69,2.77-3.81,5.63-7.92,9.25-10.98,1.34-1.13,3-1.91,4.7-2.64-1.44-3.1-3.21-6.07-5.29-8.84-1.28.36-2.48.8-3.47,1.25-4.98,2.26-9.01,5.91-12.58,9.99-6.74,7.71-11.85,15.62-21.75,18.09-9.73,2.43-19.93,2.81-29.36,6.47-1.39.54-2.85,1.26-4.3,2.12,1.39,3.57,3.27,6.99,5.55,10.15,2.61-1.39,5.69-2.11,8.47-2.69Z"/>
            <path class="cls-2" d="M80.22,39.82c-5.88,6.79-9.6,15.43-17.07,20.76-7.7,5.5-16.7,6.5-25.87,6.85-7.82.3-14.96,1.17-20.9,5.48,1.56,1.48,3.25,2.84,5.02,4.06,6.77-1.22,14.2.68,21,.93,9.05.33,18.35-2.11,25.92-7.14,5.77-3.83,9.76-8.84,13.64-14.17,2.11-6.5,2.47-13.31,1.34-19.92-1.16,1.06-2.21,2.13-3.09,3.16Z"/>
            <path class="cls-2" d="M25.91,40.27c9.35-5.13,14.83-13.65,21.33-21.73,2.82-3.5,5.84-7.07,9.49-9.74,1.69-1.24,3.84-2.06,5.91-2.96C57.22,2.73,51.04.81,44.77.21c-.52.47-1,.92-1.43,1.34-6.48,6.29-11.04,14.14-16.91,20.93-6.41,7.41-16.35,11.6-26.24,12.06-.32,3.42-.22,6.88.29,10.32.5.05.96.08,1.37.09,8.31.35,16.69-.64,24.07-4.69Z"/>
          </g>
          <path class="cls-4" d="M55.36,64.22c-10.61-.32-20.24-4.77-27.77-12.16-3.66-3.59-6.45-7.74-8.39-12.51-.95-2.33-1.3-4.72-1.92-7.14-.73-2.85-2.45-6.51-2.14-9.51.24-2.38-3.54-3.37-4.54-1.23-1.56,3.33-3.9,5.8-4.98,9.49-1.08,3.7-.73,7.61-.18,11.38,1.12,7.54,4.93,14.25,9.65,20.12,9.46,11.76,25.34,18.78,40.28,18.93,11.2.11,11.16-17.03,0-17.38Z"/>
          <g>
            <path class="cls-1" d="M.73,30.79c-.24,1.25-.42,2.5-.54,3.77,3.42-.52,7.26-1.61,11.07-3.38,2.09-.96,4.15-2.14,6.17-3.45,2-1.34,3.94-2.84,5.77-4.45,1.8-1.63,3.5-3.37,5.08-5.16,1.55-1.8,2.99-3.65,4.29-5.49,2.59-3.69,4.66-7.33,6.26-10.52.36-.73.7-1.42,1.01-2.1-.9.01-1.8.06-2.69.13-.16.25-.31.5-.47.75-3.74,5.89-9.14,13.52-16.1,19.41-1.73,1.45-3.54,2.81-5.39,4.04-1.87,1.19-3.76,2.29-5.66,3.2-3.03,1.47-6.04,2.52-8.8,3.24Z"/>
            <path class="cls-1" d="M76.79,54.37c-4.01,2.14-8.2,4.59-12.29,7.19-4.07,2.64-8.04,5.43-11.66,8.2-3.59,2.8-6.86,5.51-9.51,8-2.33,2.15-4.22,4.09-5.57,5.64,1.16.17,2.31.29,3.47.36,1.28-.97,2.74-2.11,4.35-3.37,2.81-2.22,6.13-4.75,9.69-7.43,3.59-2.66,7.47-5.41,11.41-8.09,3.96-2.65,7.97-5.22,11.79-7.54,1.37-.82,2.69-1.6,3.99-2.36.36-1.28.65-2.57.87-3.87-2.09,1-4.28,2.1-6.55,3.29Z"/>
            <path class="cls-1" d="M12.62,59.92c4.66-1.53,9.77-4.22,14.61-7.89,4.85-3.66,9.41-8.18,13.75-12.77,4.34-4.59,8.52-9.24,12.72-13.24,4.19-4,8.44-7.34,12.37-9.73,2.08-1.29,4.06-2.3,5.85-3.09-.46-.51-.95-1-1.44-1.48-1.74.61-3.64,1.4-5.62,2.43-4.3,2.19-8.95,5.42-13.45,9.38-4.52,3.94-8.9,8.53-13.28,13.01-4.38,4.47-8.81,8.81-13.34,12.32-4.52,3.51-9.17,6.15-13.37,7.83-2.31.95-4.47,1.59-6.39,2.04.48.9.98,1.79,1.52,2.67,1.87-.27,3.91-.73,6.07-1.46Z"/>
            <path class="cls-1" d="M22.59,41.82c5.67-3.29,10.96-7.72,15.94-12.31,4.98-4.59,9.74-9.3,14.5-13.26,4.25-3.54,8.56-6.45,12.6-8.53-.84-.58-1.7-1.13-2.59-1.65-3.95,1.87-8.08,4.43-12.13,7.53-5.1,3.9-10.05,8.54-15.04,12.99-4.98,4.44-10.09,8.67-15.32,11.78-5.21,3.11-10.6,5.05-15.33,5.91-1.68.32-3.26.49-4.74.56.15,1.04.35,2.07.58,3.1,1.48.03,3.04-.03,4.69-.24,5.24-.63,11.17-2.58,16.84-5.87Z"/>
            <path class="cls-1" d="M28.31,76.67c4.83-1.24,10.24-3.54,15.46-6.87,2.63-1.64,5.18-3.57,7.68-5.61,2.48-2.08,4.86-4.34,7.14-6.7,4.49-4.74,8.52-9.83,12.16-14.65,3.58-4.82,6.93-9.32,9.8-13.18.23-.3.45-.6.67-.89-.3-.83-.63-1.66-.98-2.48-.53.58-1.06,1.18-1.61,1.82-3.19,3.63-6.75,8-10.55,12.64-3.81,4.63-7.92,9.49-12.33,14-2.22,2.22-4.52,4.36-6.89,6.33-2.39,1.94-4.8,3.77-7.26,5.35-4.89,3.2-9.84,5.48-14.24,6.92-3.11,1.02-5.93,1.58-8.28,1.9,1.1.88,2.25,1.7,3.43,2.45,1.79-.18,3.74-.5,5.81-1.04Z"/>
          </g>
        </g>
      </g>
    </g>
  </g>
</svg>