<?xml version="1.0" encoding="UTF-8"?>
<svg id="Layer_2" data-name="Layer 2" xmlns="http://www.w3.org/2000/svg" viewBox="0 0 137.67 90.3">
  <defs>
    <style>
      .cls-1 {
        fill: #8e1919;
      }

      .cls-2 {
        fill: #f38422;
      }

      .cls-3 {
        fill: #b7312e;
      }

      .cls-4 {
        fill: #e35c54;
      }
    </style>
  </defs>
  <g id="OBJECTS">
    <g>
      <path class="cls-4" d="M45.97,40.61c-2.55-1.7-5.63-2.63-8.77-2.81-7.04-1.72-14.98.81-20.02,6.06-7.69,8.01-6.21,20.45.87,28.25,5.88,6.48,15.41,8.72,23.71,6.38,8.25-2.33,14.16-10.12,14.24-18.68.07-7.64-3.67-14.97-10.04-19.21Z"/>
      <path class="cls-2" d="M135.85,21.48c-10.19,6.34-20.9,8.23-32.76,8.24-6.25,0-12.53-.47-18.64.24,12-6.28,24.67-13.73,23.38-28.65-.07-.83-1.06-1.72-1.89-1.09-1.81,1.38-2.45,2.68-4.35,6.07-11.41,12.06-32.84,9.84-47.95,11.83-17.9,2.36-34.76,5.61-46.09,21.11-10.33,14.13-11.11,32.54,4.23,43.29,13.68,9.58,33.55,9.85,48.57,3.39,18.44-7.93,30.95-28.41,52.13-29.91,1.23-.09,1.63-1.93.31-2.26-10.79-2.64-21.46-2.45-31.97.42,9.64-8.14,22.17-10.01,34.08-14.05,8.9-3.02,19.63-7.51,22.71-17.27.32-1-.89-1.91-1.77-1.36ZM107.56,39.8c-11.98,3.34-23.76,6.5-32.25,16.23-.75.86-.05,2.56,1.22,2.1,9.66-3.48,19.46-4.65,29.4-3.33-12.9,3.36-22.76,13-33.46,20.92-14.33,10.62-32.54,15.15-49.86,9.18-9-3.11-17.87-9.72-19.79-19.56-1.9-9.73,2.9-19.88,9.1-27.12,12.52-14.63,32.29-16.77,50.35-18.39,13.48-1.21,31.9-1.01,40.75-12.98.27-.07.53-.24.72-.55.45-.85.99-1.61,1.62-2.29-.67,16.05-20.34,22.11-32.23,29.16-1.42.84-.17,2.92,1.28,2.2,10.81-5.39,23.65-2.61,35.28-3.28,8.67-.5,16.64-2.58,24.15-6.63-5,8.51-17.56,11.93-26.29,14.36Z"/>
      <path class="cls-3" d="M56.01,59.82c.07-7.64-3.67-14.97-10.04-19.21-1.17-.78-2.47-1.39-3.82-1.85,0,.04.02.07.02.11-.02.74.1,1.54.41,2.39.11.31.22.63.32.94.34,1.85.46,3.67-.07,5.32-1.09,3.33-3.89,6.35-6.27,8.83-5.63,5.88-13.6,8.93-20.69,12.66-.05.02-.08.06-.13.08.69,1.06,1.46,2.08,2.32,3.03,5.88,6.48,15.41,8.72,23.71,6.38,8.25-2.33,14.16-10.12,14.24-18.68Z"/>
      <g>
        <path class="cls-1" d="M15.91,51.05c-.76-.59-1.66-.96-2.59-1.07-1.31,3.41-1.56,7.11-.9,10.71.21-.02.42-.06.64-.1.72-.15,1.48-.45,2.11-.81.84-.49,1.52-1.1,2.02-1.95.56-.97.65-1.68.74-2.78.13-1.56-.83-3.09-2.01-4Z"/>
        <path class="cls-1" d="M22.11,69.45c.46.08.93.13,1.4.14h-.07s.1,0,.14,0c.13,0,.25,0,.38-.02.04,0,.08,0,.12,0,.01,0,.02,0,.03,0,.01,0,.02,0,.04,0,1.02-.06,1.73-.33,2.63-.75l-.04-.04c.54-.31,1.04-.72,1.44-1.24.85-1.1,1.17-2.31.98-3.68-.2-1.48-1.01-2.92-2.38-3.64-.93-.49-1.69-.67-2.7-.77-.15-.01-.29-.03-.44-.04-.54-.04-1.02-.02-1.59.18-1.21.42-2.43,1.17-3.05,2.35-.64,1.2-.91,2.6-.52,3.93.47,1.59,1.88,3.28,3.62,3.59Z"/>
        <path class="cls-1" d="M40.37,46.6c-1.28.87-2.15,2.12-2.14,3.72,0,1.62.86,2.82,2.16,3.7.82.55,2.25.72,3.18.42.87-.28,1.58-.75,2.15-1.48.55-.71.81-1.52.84-2.32.12-1.02-.13-2.06-.82-2.96-1.19-1.54-3.64-2.24-5.36-1.07Z"/>
        <path class="cls-1" d="M42.35,75.98c-.11-2.54-2.06-4.69-4.69-4.69-1.2,0-2.46.52-3.31,1.37-.81.81-1.43,2.15-1.37,3.31.06,1.32.62,2.53,1.52,3.4,2.38.07,4.78-.21,7.08-.84.49-.76.81-1.71.77-2.56Z"/>
        <path class="cls-1" d="M50.85,64.02c.18-.28.33-.59.42-.92.23-.84.14-1.72-.19-2.52-.27-.64-.64-1.12-1.19-1.55-.63-.48-1.53-.91-2.34-.83-1.01.1-1.9.21-2.8.7-.97.53-1.84,1.55-2.11,2.65-.21.88-.19,1.63.02,2.51.22.89.75,1.65,1.45,2.22l-.1-.08c.1.08.18.16.25.25.82,1.05,2.56,1.32,3.76.99,1.29-.36,2.35-1.4,2.7-2.7.06-.24.11-.48.14-.73Z"/>
        <path class="cls-1" d="M31.58,43.73c-.68-.39-1.41-.59-2.19-.62-.7-.07-1.41.02-2.08.3-1.61.68-2.82,2.45-2.59,4.25l.16,1.21c.14.59.41,1.11.82,1.55.59.76,1.41,1.4,2.37,1.63.03,0,.07.02.1.03,1.78.44,3.62-.16,4.74-1.62.5-.65.78-1.32.89-2.13.11-.4.11-.8,0-1.2-.03-.6-.21-1.16-.54-1.68-.01-.03-.03-.07-.04-.1-.41-.69-.95-1.23-1.64-1.64Z"/>
        <path class="cls-1" d="M36.02,37.56c-.14.75-.05,1.28.08,2.13.17,1.02,1.21,2.26,2.1,2.73,1.13.6,2.26.71,3.52.46.02,0,.04,0,.07-.01,1.02-.2,2.21-1.17,2.69-2.07.14-.27.27-.56.37-.86-2.31-1.27-4.95-1.98-7.64-2.13-.39-.1-.79-.17-1.19-.24Z"/>
      </g>
    </g>
  </g>
</svg>