<?xml version="1.0" encoding="UTF-8"?>
<svg xmlns="http://www.w3.org/2000/svg" viewBox="0 0 109.21 109.22">
  <defs>
    <style>
      .cls-1, .cls-2 {
        mix-blend-mode: multiply;
        opacity: .33;
      }

      .cls-3 {
        isolation: isolate;
      }

      .cls-2, .cls-4 {
        fill: #febe2b;
      }

      .cls-5 {
        fill: #fce36b;
      }
    </style>
  </defs>
  <g class="cls-3">
    <g id="Layer_2" data-name="Layer 2">
      <g id="Capa_1" data-name="Capa 1">
        <g>
          <path class="cls-5" d="M109.21,54.61c0,30.16-24.45,54.61-54.61,54.61S0,84.78,0,54.61,24.45,0,54.6,0s54.61,24.46,54.61,54.61Z"/>
          <path class="cls-2" d="M83.18,8.07C74.87,2.96,65.08,0,54.6,0,24.45,0,0,24.46,0,54.61c0,6.86,1.26,13.43,3.57,19.47,1.18.89,2.4,1.73,3.67,2.51,5.6,3.41,12.21,4.88,18.6,3.06,5.9-1.68,11.04-5.07,16.03-8.52.77-.53,1.54-1.07,2.3-1.6,4.41.9,8.81,1.9,13.12,3.22,4.39,1.35,8.73,2.85,13.31,3.35,4.27.46,8.64-.56,11.07-4.37,1.51-2.38,1.75-5.38,1.91-8.11.23-3.79-.17-7.59-.7-11.34-1.06-7.49-3.01-14.86-2.93-22.48.07-6.57,2.21-12.97,3.02-19.46.09-.75.17-1.5.21-2.26Z"/>
          <g class="cls-1">
            <path class="cls-4" d="M4.79,73.2c1.67,1.29,3.97,2.22,5.71.48,1.16-1.17,1.27-3.08,1.2-4.63-.09-2.67-.81-5.33-1.26-7.97-1.06-6.23-1.6-12.54-1.35-18.86.26-6.43,1.83-12.66,2.64-19.02.13-.94.22-1.86.3-2.79C4.51,29.78,0,41.66,0,54.61c0,5.78.89,11.34,2.56,16.57.71.74,1.45,1.42,2.23,2.02Z"/>
            <path class="cls-4" d="M68.25,48.91c-4.38,1.99-7.87,5.45-10.33,9.55-3.09,5.15-4.23,10.99-5.77,16.71-2.99,11.18-7.67,21.73-13.38,31.72,5.01,1.51,10.32,2.33,15.82,2.33,30.16,0,54.61-24.45,54.61-54.61,0-1.23-.05-2.46-.13-3.68-3.56-1.52-7.33-2.6-10.87-3.35-9.73-2.09-20.68-2.88-29.96,1.33Z"/>
            <path class="cls-4" d="M50.99,25.7c4.06,1.08,8.18,1.95,12.35,2.51,3.34.46,6.76.82,10.14.61,4.52-.29,8.99-1.77,12.26-5,2.88-2.85,4.28-6.55,4.66-10.44C80.8,5.04,68.29,0,54.6,0S28.66,4.94,19.12,13.11c3.14,1.26,6.19,2.77,9.23,4.25,3.53,1.7,7.08,3.35,10.76,4.7,3.88,1.42,7.89,2.58,11.88,3.64Z"/>
          </g>
          <g class="cls-1">
            <path class="cls-4" d="M65.64,23.28c4.86-2.54,8.81-6.43,11.8-10.99,1.2-1.82,2.18-3.79,2.89-5.85C72.66,2.33,63.9,0,54.6,0,24.45,0,0,24.46,0,54.61c0,9.01,2.18,17.51,6.04,25,1.52-.39,2.99-1,4.32-1.87,2.6-1.7,4.47-4.38,5.77-7.15,4.83-10.22,2.04-23.81,10.31-32.41,3.02-3.14,7.08-5,11.16-6.36,4.61-1.52,9.4-2.48,14.11-3.65,4.78-1.18,9.54-2.61,13.93-4.9Z"/>
            <path class="cls-4" d="M109.17,56.5c-.58-1.42-1.13-2.86-1.66-4.3-2.09-5.7-10.74-37.11-21.16-27.42-2.03,1.89-3.11,4.82-3.99,7.37-1.1,3.18-2.01,6.43-2.84,9.7-1.65,6.57-3.02,13.32-6.12,19.4-1.46,2.86-3.34,5.51-5.67,7.73-2.21,2.09-4.91,3.59-7.57,5.02-5.76,3.08-11.41,6.14-14.74,12.03-3.16,5.59-3.38,12.22-3.86,18.46-.08,1.02-.14,2.06-.22,3.09,4.24,1.06,8.68,1.63,13.25,1.63,29.52,0,53.57-23.44,54.57-52.72Z"/>
          </g>
          <g class="cls-1">
            <path class="cls-4" d="M109.16,56.89c-3.51-.49-7.15-.07-10.58.64-5.21,1.09-10.19,3.08-15.08,5.13-6.21,2.6-12.34,5.31-18.81,7.23-3.85,1.14-7.78,2.01-11.77,2.5-4.1.5-8.22.82-12.31,1.46-6,.92-12.02,2.6-15.72,7.75-2.77,3.85-3.2,8.99-2.88,13.56.08,1.19.21,2.37.38,3.55,9.04,6.61,20.18,10.52,32.22,10.52,29.4,0,53.37-23.23,54.56-52.33Z"/>
            <path class="cls-4" d="M60.99,30.86c5.84-2.45,10.51-7.56,13.23-13.19,1.92-3.96,2.94-8.37,3.01-12.76-6.89-3.15-14.56-4.9-22.63-4.9C35.69,0,19.02,9.63,9.22,24.23c3.88.92,7.72,1.94,11.57,3.02,7.04,1.97,14.03,4.33,21.28,5.39,6.42.94,12.88.75,18.93-1.79Z"/>
          </g>
          <g class="cls-1">
            <path class="cls-4" d="M106.32,72.18c-4.55,2.26-9.56,3.55-14.57,4.31-7.25,1.1-14.56.43-21.81-.24-7.77-.7-15.59-1.36-23.32,0-2.82.49-5.68,1.45-7.65,3.62-1.6,1.75-2.24,4.11-2.15,6.45.2,5.31,3.4,10.34,6.46,14.46,2.24,3.01,4.73,5.77,7.46,8.3,1.27.08,2.56.14,3.86.14,24.02,0,44.4-15.5,51.72-37.04Z"/>
            <path class="cls-4" d="M1.6,41.45c3.47,1.66,7.06,3.08,10.66,4.45,9.79,3.72,20.27,9,31.08,7.71,5.53-.66,10.15-3.4,13.26-8.05,3.27-4.89,5.01-10.86,6.08-16.58,1.18-6.35,1.47-12.88,1.03-19.31-.21-3.03-.59-6.08-1.18-9.08-2.6-.38-5.23-.58-7.92-.58C28.99,0,7.49,17.65,1.6,41.45Z"/>
          </g>
          <path class="cls-2" d="M54.6,109.22c30.16,0,54.61-24.45,54.61-54.61,0-19.18-9.9-36.06-24.87-45.79.43,9.14,2.75,18.25,1.66,27.42-.67,5.65-3.41,10.52-7.77,14.13-1.94,1.61-4.37,2.61-6.65,3.61-2.58,1.11-5.17,2.17-7.67,3.45-2.34,1.2-4.64,2.66-6.44,4.59-2.01,2.17-2.86,4.82-3.07,7.73-.48,6.62,2.87,13.14,1.14,19.73-.96,3.63-2.81,6.95-4.95,10.02-1.74,2.49-3.83,4.69-5.62,7.14-.37.5-.69,1.03-.97,1.57,3.43.68,6.98,1.04,10.61,1.04Z"/>
          <g class="cls-1">
            <path class="cls-4" d="M109.21,54.61c0-17.98-8.69-33.94-22.1-43.88-.32.64-.5,1.36-.58,2.1-.32,3.16.78,6.5,1.84,9.43,1.2,3.33,2.72,6.54,4.04,9.81,2.5,6.16,3.6,12.74,3.02,19.38-.52,5.94-2.74,11.58-5.83,16.64-3.33,5.44-7.7,10.17-12.27,14.6-5.83,5.65-11.7,11.24-17.7,16.71-3.54,3.23-7.12,6.4-10.73,9.53,1.87.19,3.77.3,5.7.3,30.16,0,54.61-24.45,54.61-54.61Z"/>
            <path class="cls-4" d="M4.21,33.55c6.25-.56,12.46-1.54,18.69-2.25,4.21-.47,8.43-.83,12.67-.65,4.17.17,8.31.7,12.48.87,1.92.08,3.84.02,5.75-.09,1.08-.06,2.29-.05,3.31-.42,2.31-.83,2.18-2.95,1.86-4.98-.56-3.54-.99-7.02-.82-10.61.17-3.57,1-7.08,1.91-10.53.4-1.48.8-2.99,1.01-4.5-2.12-.25-4.27-.39-6.46-.39C31.91,0,12.46,13.85,4.21,33.55Z"/>
          </g>
          <path class="cls-2" d="M54.6,109.22c30.16,0,54.61-24.45,54.61-54.61S84.77,0,54.6,0c-15.5,0-29.5,6.47-39.45,16.85,2.45.15,4.88.83,7.22,1.51,4.58,1.34,9.24,3.32,14.12,2.64,4.86-.68,7.6-4.89,9.89-8.79,1.81-3.08,4.14-6.5,5.19-10.09,1.07-.4,2.14-.77,3.26-.99.3-.05.77-.05,1.09.02.04.02.07.02.08.02.03.04.08.1.2.21.28.27.47.75.62,1.1.96,2.35,1.84,4.31,4.54,4.93,2.64.61,5.38-.54,7.74-1.6.83-.36,1.63-.76,2.41-1.19,1.47.48,2.92.99,4.37,1.52.57.55,1.14,1.08,1.74,1.6,1.31,1.12,2.73,2.15,4.24,3.02,1.17.68,2.75.84,4.05,1.23.75.23,2.1.63,2.4,1.47.36,1.02-.62,2.81-.94,3.76-.99,2.94-.57,5.94.78,8.71,1.16,2.38,3.27,4.09,5.34,5.63,1.95,1.45,4.52,2.85,5.63,5.09.88,1.77-.85,4.48-1.44,6.1-.92,2.52-.9,5.29.77,7.49,1.43,1.89,3.46,3.07,5.48,4.25,1.19.7,2.4,1.46,3.34,2.44-1.43,1.3-2.76,2.7-3.73,4.42-1.28,2.3-1.54,5.04-2.23,7.55-.53,1.9-1.31,3.27-2.86,4.55-2.18,1.78-5.1,2.64-7.62,3.76-2.84,1.27-4.4,3.48-6.29,5.82-1.61,2.01-3.89,2.91-5.94,4.39-1.99,1.44-3.55,3.25-4.58,5.48-1.63,3.54-2.2,7.4-4.02,10.84-.62.3-1.23.61-1.86.89-2.87,1.31-5.96,2.22-9.1,2.69-1.48-1.85-2.84-3.69-4.8-5.08-2.14-1.52-4.77-1.43-7.27-1.57-.89-.04-1.87-.11-2.53-.23-.39-.07-.76-.18-1.11-.3.3.11-.66-.46-.57-.35-1.33-1.15-1.91-3.73-2.33-5.67-.54-2.5-1.46-5-3.23-6.89-3.84-4.11-9.73-1.92-14.56-2.03-2.04-.05-4.16-.41-6.03-1.26-2.28-3.48-4.26-7.16-5.92-10.94.48-2.74,1.81-5.2,3.3-7.58,2.99-4.74,7.01-11.76,1.32-16.21-2.2-1.71-4.99-2.38-7.17-4.09-2.97-2.32-1.88-6.17-.8-9.2.91-2.55,1.81-4.95,2.02-7.68.08-1.07-.13-2.29-.7-3.17C3.17,33.6,0,43.73,0,54.61c0,30.16,24.45,54.61,54.6,54.61Z"/>
          <g class="cls-1">
            <path class="cls-4" d="M64.03,3.62c5.69,3.43,9.6,9.13,15.21,12.68,1.63,1.04,4.13,2.06,5.78.49,1.73-1.63.8-4.43.05-6.29-.23-.56-.47-1.12-.71-1.68C76.55,3.73,67.34.59,57.44.07c2.23,1.11,4.47,2.27,6.59,3.54Z"/>
            <path class="cls-4" d="M98.03,87.73c-1.45-.41-3.06-.43-4.5-.25-2.78.34-5.46,1.15-8.07,2.14-3.98-.05-7.98.4-11.8,1.25-2.65.59-4.74,1.11-6.52,3.33-1.46,1.82-2.17,3.87-3.04,5.97-1.96.81-3.98,1.4-6.07,1.52-3.62.22-6.98-1.36-10.03-3.12-3.95-2.28-7.91-4.18-12.37-5.29-1.71-.43-3.42-.73-5.15-.94-.22-.83-.48-1.64-.84-2.44-.76-1.71-2.36-3.08-3.89-4.08-4.8-3.15-10.12-.82-13.87,2.79,10.01,12.56,25.42,20.61,42.72,20.61s33.44-8.43,43.43-21.49Z"/>
            <path class="cls-4" d="M6.02,29.65c1.65-.99,3.36-1.87,5.11-2.7,1.13.03,2.26.11,3.36.23,3.41.36,6.73.78,10.14.28,3.15-.45,6.11-2.15,8.8-3.77,2.55-1.53,5.39-2.98,7.7-4.87,1.8-1.47,2.82-3.78,3.16-6.03.43-2.82.08-5.62-.36-8.43.5-1.13.89-2.32,1.16-3.53C28.03,3.83,13.71,14.75,6.02,29.65Z"/>
          </g>
        </g>
      </g>
    </g>
  </g>
</svg>