<?xml version="1.0" encoding="UTF-8"?>
<svg id="Layer_2" data-name="Layer 2" xmlns="http://www.w3.org/2000/svg" viewBox="0 0 173.74 173.73">
  <defs>
    <style>
      .cls-1 {
        fill: #33b5b4;
      }

      .cls-2 {
        fill: #0f9db1;
      }
    </style>
  </defs>
  <g id="Capa_1" data-name="Capa 1">
    <g>
      <path class="cls-2" d="M173.74,86.87c0,47.98-38.89,86.87-86.87,86.87S0,134.85,0,86.87,38.89,0,86.87,0s86.87,38.89,86.87,86.87Z"/>
      <g>
        <path class="cls-1" d="M143.89,138.72c-2.59-1.78-14.36-7.23-18.22,3.42-2.18,6.01,2.28,12.61,8.97,13.25,1.85.18,3.74-.02,5.45-.57,2.13-1.7,4.18-3.5,6.14-5.38.4-.99.63-2.1.66-3.32.02-1.34-1.76-6.54-3.01-7.4Z"/>
        <path class="cls-1" d="M171.05,69.18c-1.59-7.66-4.18-14.96-7.64-21.74-.93,1.29-1.6,2.67-1.86,4.02-1.46,7.71,2.17,15.48,9.5,17.72Z"/>
        <path class="cls-1" d="M72.46,159.1c.03-1.79-2.79-8.25-4-9.87-9.26-12.3-22.86-3.11-24.3,4.55-.65,3.43-.26,6.87,1.04,9.8,5.69,3.03,11.74,5.44,18.1,7.16,5.04-1.6,9.04-5.52,9.17-11.63Z"/>
        <path class="cls-1" d="M84.19,86.78c-1.42,7.56,2.73,15.17,10.79,15.94,7.07.68,14.55-3.16,14.71-11.14.04-1.61-2.34-7.58-3.61-8.9-6.71-7.01-20.59-2.81-21.89,4.1Z"/>
        <path class="cls-1" d="M70.85,172.42c4.91.86,9.97,1.31,15.13,1.31,3.28,0,6.5-.18,9.68-.54,0-4.17-16.88-16.19-24.81-.78Z"/>
        <path class="cls-1" d="M131.33,12.76c-7.47-4.57-15.68-8.05-24.41-10.21.33,1.92.93,3.84,1.81,5.59,4.26,8.5,15.93,9.84,22.6,4.62Z"/>
        <path class="cls-1" d="M104.76,110.09c-6.97,1.7-8.98,13.04-4.86,21.25,4.99,9.95,20.14,10.09,25.51,1.39,9.39-15.2-13.62-24.36-20.65-22.64Z"/>
        <path class="cls-1" d="M55.83,88.61c9.39-15.2-5.86-30.3-20.65-22.64-6.38,3.29-8.98,13.04-4.87,21.26,4.99,9.95,20.14,10.09,25.52,1.39Z"/>
        <path class="cls-1" d="M134.35,86.64c-3.46-3.41-7.77-5.22-12.14-2.84-4.23,2.3-8.9,7.41-8.53,12.57.38,5.2,4.68,8.88,9.4,10.23,5.56,1.57,8.64-.46,12.43-4.39,5.01-5.21,3.81-10.65-1.17-15.56Z"/>
        <path class="cls-1" d="M158.68,114.64c-3.76-3.71-8.46-5.68-13.21-3.09-4.6,2.5-9.69,8.06-9.28,13.68.41,5.65,5.1,9.66,10.23,11.12,6.06,1.72,9.41-.49,13.54-4.78.83-.86,1.49-1.72,2.01-2.59.13-.24.27-.47.4-.71,2.38-4.62.69-9.32-3.69-13.63Z"/>
        <path class="cls-1" d="M60.64,67.52c.49,6.67,6.02,11.4,12.08,13.12,7.16,2.02,11.12-.58,15.98-5.64,6.43-6.68,4.9-13.68-1.5-19.98-4.45-4.38-9.98-6.7-15.6-3.65-5.42,2.95-11.43,9.52-10.95,16.15Z"/>
        <path class="cls-1" d="M111.46,160.08c-2.07,3.87-2.19,7.4-1.08,10.18,7.23-2.11,14.06-5.13,20.37-8.93-3.76-6.53-14.48-10.28-19.29-1.25Z"/>
        <path class="cls-1" d="M145.43,91.52c-5.59,10.51,6.41,17.9,14.48,9.85,8.32-8.28-8.58-20.94-14.48-9.85Z"/>
        <path class="cls-1" d="M129.08,49.01c-5.83,10.95,6.67,18.65,15.09,10.26,8.67-8.63-8.94-21.81-15.09-10.26Z"/>
        <path class="cls-1" d="M24.86,44.2c5.09,1.53,19.03-9.23,10.1-17.92-2.63-2.58-5.92-2.89-8.81-2.38-4.05,3.85-7.72,8.09-10.98,12.65.09.5.25,1,.5,1.44,1.79,3.19,5.81,5.19,9.19,6.21Z"/>
        <path class="cls-1" d="M105.7,143.33c-4.53-4.41-10.99-2.2-14.05-.5-3.35,1.85-7.37,8.4-5.23,12.21,1.79,3.19,5.81,5.19,9.19,6.2,5.09,1.54,19.03-9.22,10.1-17.92Z"/>
        <path class="cls-1" d="M69.55,14.32c1.62-5.95.25-9.91-2.59-12.23-9.33,2.08-18.09,5.67-26.02,10.48.18,2.08,1.08,4.34,2.93,6.71,6.94,8.92,22.66,6.15,25.68-4.96Z"/>
        <path class="cls-1" d="M90.9,133.81c7.02-25.86-41.35-14.62-26.05,5.04,7.04,9.05,22.99,6.24,26.05-5.04Z"/>
        <path class="cls-1" d="M80.64,105.12c7.02-25.86-41.34-14.62-26.05,5.03,7.04,9.05,22.99,6.24,26.05-5.03Z"/>
        <path class="cls-1" d="M136.03,33.03c5.24-19.31-30.87-10.92-19.45,3.76,5.26,6.75,17.17,4.66,19.45-3.76Z"/>
        <path class="cls-1" d="M100.85,56.27c-7.04,11.05,13.07,24.08,19.76,13.17,3.65-5.95-11.78-25.7-19.76-13.17Z"/>
        <path class="cls-1" d="M10.57,85.42c-15.46,3.48-10.71,31.62,4.41,28.37,15.88-3.42,13.73-32.47-4.41-28.37Z"/>
        <path class="cls-1" d="M77.71,19.79c5.22,9.85,16.82,3.06,21.68-3.18,4.72-6.05.63-13.53-5.58-16.25-2.58-.23-5.19-.35-7.83-.35-.24,0-.47,0-.71,0-6.86,2.79-11,13.3-7.56,19.78Z"/>
        <path class="cls-1" d="M138.39,80.75c4.79,9.03,15.42,2.79,19.89-2.93,5.57-7.14-2.23-16.46-10.37-15.84-7.78.58-13.09,12.05-9.52,18.78Z"/>
        <path class="cls-1" d="M145.14,41.26c3.61,6.79,10.46,5.07,15.61,1.36-3.59-6.06-7.9-11.64-12.81-16.64-3.63,4.12-5.19,10.76-2.8,15.28Z"/>
        <path class="cls-1" d="M170.54,106.88c1.52-6.42,2.32-13.12,2.32-20.01,0-3.79-.25-7.53-.72-11.19-10.21,6.52-10.54,23.12-1.6,31.2Z"/>
        <path class="cls-1" d="M36.61,151.71c-.26-13.55-10-25.5-23.65-17.79,5.97,9.26,13.66,17.31,22.62,23.7.7-1.95,1.07-3.95,1.04-5.91Z"/>
        <path class="cls-1" d="M64.69,46.74c5.39,3.83,12.11-2.52,12-8.12-.13-6.69-4.97-12.58-11.74-8.59-5.75,3.38-5.7,12.85-.26,16.71Z"/>
        <path class="cls-1" d="M27.48,115.02c-2.71,9.91,7.5,20.3,17.65,18.72,10.06-1.58,10.66-15.78,4.53-21.85-7.32-7.23-18.98-8.53-22.18,3.13Z"/>
        <path class="cls-1" d="M20.64,74.37c7.84-6.48,12.11-15.41,2.71-22.87-8.33-6.61-15.79,1.49-17.24,1.15-2.27,5.31-4.05,10.89-5.23,16.69,4.78,6.85,12.4,11.11,19.76,5.02Z"/>
        <path class="cls-1" d="M107.75,39.89c3.87-15-25.57-20.05-24.49-.73.79,14.18,20.88,14.68,24.49.73Z"/>
        <path class="cls-1" d="M54.77,49.65c4.38-5.43-9.51-12.92-14.78-8.61-2.84,2.32-4.78,4.39-2.24,8.09,5.6,8.12,10.73,8.29,17.02.51Z"/>
      </g>
    </g>
  </g>
</svg>