<?xml version="1.0" encoding="UTF-8"?>
<svg id="Layer_2" data-name="Layer 2" xmlns="http://www.w3.org/2000/svg" viewBox="0 0 159.47 115.92">
  <defs>
    <style>
      .cls-1 {
        fill: #34b8eb;
      }

      .cls-2 {
        fill: #6fd0f6;
      }

      .cls-3 {
        fill: #a8e0f9;
      }
    </style>
  </defs>
  <g id="Capa_1" data-name="Capa 1">
    <g>
      <g>
        <path class="cls-2" d="M132.66,87.57c-16.35,27.51-51.91,36.55-79.43,20.2-27.51-16.36-36.55-51.92-20.2-79.42C49.4.83,84.96-8.21,112.47,8.15c27.51,16.35,36.55,51.91,20.2,79.43Z"/>
        <g>
          <path class="cls-1" d="M65.02,13.16c2.42-1.35,4.01-4.22,6.75-5.58,2.26-1.13,8.5-3.96,13.14-7.55-11.82-.41-23.55,2.83-33.51,9.25.04.04.08.08.14.13,3.39,3.21,8.84,6.33,13.49,3.75Z"/>
          <path class="cls-1" d="M76.46,25.3c5.12-1.03,12.35-1.21,16.52-4.87,3.03-2.66,1.85-7.26,4.26-10.26,2.09-2.59,5.04-3.96,7.45-5.91-3.2-1.31-6.47-2.31-9.77-3.01-6.85,8.05-11.81,14.38-22.95,17.11-7.8,1.92-15.86,3.75-23.88,2.5-2.82-.45-5.46-1.16-8.05-1.96-1.45,1.59-2.83,3.29-4.11,5.07,2.3.26,5.25.36,9.02.2,24.54-1.01,26.6,2.12,31.52,1.12Z"/>
          <path class="cls-1" d="M117.26,92.47c-10.22,6.12-20.74,10.76-32.59,12.57-9.49,1.45-19.28.17-28.61-1.78-5.66-1.18-10.07-2.55-14.76-4.89,3.47,3.56,7.46,6.74,11.94,9.4,3.72,2.2,7.58,3.95,11.52,5.25,4.9-.34,9.73-.67,14.74-.62,6.38.07,12.87-1.6,19.02-3.15,4.06-1.03,6.6-2.4,9.66-5.17,4.1-3.71,7.64-5.89,12.92-7.86,2.71-1.01,5.36-2.1,7.95-3.27,1.29-1.71,2.5-3.5,3.61-5.37.67-1.13,1.3-2.28,1.89-3.44-.03.01-.06.02-.09.04-5.84,2.35-11.8,5.05-17.2,8.29Z"/>
          <path class="cls-1" d="M130.23,24.55c-9.09,17.44-26.74,29.44-47.29,32.18-9.64,1.29-20.64.2-30.22-2.67-9.83-2.94-17.26-9.47-23.56-17.33-.05-.06-.11-.14-.16-.2-3.13,7.85-4.44,16.1-4.04,24.21,2.63.65,5.32,1.13,7.9,1.68,3.8.79,8.04,1.48,11.42,3.56,2.25,1.39,3.71,2.88,6.11,4.04,15.35,7.47,30.46,3.41,46.01,1.82,12.14-1.23,24.45-.52,34.86-7.17,3.98-2.54,7.22-5.34,9.51-8.54-.36-11.27-4.01-22.29-10.55-31.59Z"/>
          <path class="cls-1" d="M55.72,98.34c3.66,2.07,8.41,1.3,11.87-.57,3.13-1.69,4.27-4.59,7.94-5.45,3.16-.72,6.46-.5,9.68-1.12,3.02-.59,5.78-.76,8.7-1.09,3.7-.41,7.39-3.84,10.86-5.38,7.69-3.4,16.94-.63,23.34-6.39,3.28-2.95,7.29-4.62,11.06-6.67.49-2.03.88-4.08,1.15-6.12-.59.31-1.12.6-1.54.83-6.53,3.38-12.51,7.61-19.29,10.66-10.92,4.9-22.87,6.35-34.65,7.43-13.58,1.25-27.42.26-40.7-2.79-6.22-1.43-11.7-3.87-16.89-7.41.53,1.79,1.13,3.55,1.83,5.3,3.7,3.02,4.92,8.96,9.89,10.66,4.15,1.41,7.79-.54,11.73-.24,1.34,3.48,1.29,6.26,5.01,8.37Z"/>
          <path class="cls-1" d="M44.84,30.91c-3.53-.76-7.65-1.68-11.54-2.97-.08.13-.17.27-.25.4-.43.71-.83,1.44-1.22,2.16,1.06,1.31,2.09,2.61,2.96,3.88,4.07,5.89,10.32,10.96,16.65,14.25,4.79,2.49,11.83,4.28,17.29,4,4.91-.24,6.84-4.63,11.13-5.91,3.71-1.11,6.78,1.58,10.21,2.1,3.68.55,8-1.1,10.69-3.64,2.88-2.71,3.65-6.96,5.95-10.23,3.48-4.93,8.63-6.9,13.59-10,2.13-1.33,4.25-3.14,6.11-5.25-3.13-3.56-6.75-6.78-10.82-9.57-12.36,23.01-47.96,25.66-70.75,20.77Z"/>
        </g>
      </g>
      <path class="cls-3" d="M142.8,80.62c-1.56-1.47-3.2-2.97-4.91-4.48-.71,2.13-1.55,4.24-2.51,6.31,1.04.94,2.05,1.88,3.03,2.8,13.75,13.05,15.46,19.73,14.44,21.43-1.01,1.71-7.69,3.39-25.72-2.45-16.04-5.19-35.92-14.63-55.99-26.56-20.06-11.93-37.85-24.89-50.08-36.49C7.31,28.12,5.6,21.45,6.62,19.74c1.01-1.7,7.7-3.39,25.72,2.45,1.28.42,2.58.86,3.9,1.32,1.36-1.84,2.81-3.57,4.35-5.21-2.15-.79-4.24-1.51-6.28-2.17-18.34-5.94-29.5-5.82-33.17.36-3.68,6.18,1.55,16.04,15.53,29.31,12.57,11.92,30.75,25.18,51.21,37.35,20.46,12.16,40.8,21.8,57.28,27.14,18.34,5.94,29.49,5.82,33.17-.36,3.67-6.18-1.55-16.04-15.53-29.31Z"/>
    </g>
  </g>
</svg>