<?xml version="1.0" encoding="UTF-8"?>
<svg xmlns="http://www.w3.org/2000/svg" viewBox="0 0 247.03 247.03">
  <defs>
    <style>
      .cls-1 {
        fill: #fdb72e;
      }

      .cls-2 {
        isolation: isolate;
      }

      .cls-3, .cls-4 {
        mix-blend-mode: multiply;
      }

      .cls-3, .cls-5 {
        fill: #febe2b;
      }

      .cls-6 {
        fill: #fce36b;
      }
    </style>
  </defs>
  <g class="cls-2">
    <g id="Layer_2" data-name="Layer 2">
      <g id="Capa_1" data-name="Capa 1">
        <g>
          <polygon class="cls-1" points="247.03 123.52 226.8 135.17 243.96 150.99 221.64 157.85 234.82 177.12 211.53 178.8 220.09 200.53 197.01 197 200.53 220.08 178.8 211.53 177.12 234.82 157.85 221.64 150.99 243.96 135.17 226.8 123.51 247.03 111.87 226.8 96.03 243.96 89.17 221.64 69.91 234.82 68.22 211.53 46.5 220.08 50.02 197 26.94 200.53 35.49 178.8 12.21 177.12 25.39 157.85 3.07 150.99 20.23 135.17 0 123.52 20.23 111.86 3.07 96.03 25.39 89.18 12.21 69.9 35.5 68.22 26.95 46.5 50.02 50.02 46.5 26.94 68.22 35.49 69.91 12.21 89.17 25.38 96.03 3.06 111.87 20.23 123.51 0 135.17 20.23 150.99 3.06 157.85 25.38 177.12 12.21 178.8 35.49 200.53 26.94 197.01 50.02 220.09 46.5 211.53 68.22 234.82 69.9 221.64 89.18 243.96 96.03 226.8 111.86 247.03 123.52"/>
          <path class="cls-6" d="M221.08,123.52c0,53.88-43.68,97.56-97.57,97.56S25.95,177.39,25.95,123.52,69.63,25.95,123.51,25.95s97.57,43.68,97.57,97.57Z"/>
          <g>
            <path class="cls-3" d="M221.07,124.23c-3.02-.4-6.13-.25-9.1.14-5.26.69-10.36,2.24-15.31,4.11-8,3.02-15.94,6.8-23.34,11.12-6.61,3.86-12.95,8.19-19.52,12.13-7.42,4.45-15.2,9.15-23.48,11.56-.75.21-1.51.4-2.28.55-.13.03-.79.14-.81.15-.35.04-.7.06-1.05.08-.3.01-.6,0-.91-.01-.14,0-.28,0-.43-.03h-.04c-.26-.05-.51-.12-.76-.19-.04,0-.11-.04-.17-.06-.09-.04-.17-.09-.26-.14-.08-.04-.14-.07-.17-.09-.02-.02-.05-.05-.1-.09-.16-.14-.31-.28-.45-.44.03.02-.28-.42-.34-.54-.02-.04-.05-.12-.09-.18-.04-.14-.09-.28-.13-.44-.08-.27-.13-.55-.18-.84.03.16-.05-.62-.05-.76-.03-.84.03-1.67.13-2.5.44-3.69,2.06-8.03,3.55-11.71,1.77-4.36,3.85-8.6,5.98-12.78,3.36-6.59,6.83-13.09,10.02-19.75,4.9-10.24,10.07-21.33,10.46-32.87.17-5.25-1.12-10.43-4.56-14.49-3.62-4.27-9.18-6.3-14.49-7.4-5.63-1.17-11.4-1.4-17.08-2.27-5.59-.86-11.14-2.61-16-5.55-4.79-2.91-8.62-7.09-11.63-11.79-1.09-1.71-2.22-3.55-3.14-5.45-34.9,14.86-59.38,49.47-59.38,89.81,0,5.9.53,11.68,1.53,17.29,3.09.63,6.29.88,9.46.91,8.04.07,16.05-.96,24.09-.77,3.39.07,6.26.28,9.45,1.43.11.04.22.08.32.13.01,0,.27.12.31.14.3.14.58.28.88.44.28.16.54.33.81.5.53.35.1.04.58.46.23.21.45.42.66.65.11.11.2.23.3.35.02.02.04.05.07.09.18.25.34.52.49.79.08.14.15.28.22.43.04.09.07.14.1.17,0,.02,0,.04.03.1.63,1.61.68,2.62.66,4.27-.04,2.04-.45,3.99-.99,5.98-1.67,6.13-4.47,11.92-7.41,17.51-3.49,6.63-7.55,13.33-10.68,20.34,8.81,8.25,19.14,14.88,30.54,19.44,6.35-4.1,12.55-8.44,18.86-12.62,7.44-4.93,14.99-9.72,22.85-13.96,6.95-3.73,14.05-7.12,21.8-8.77,2.89-.62,5.73-.92,8.91-.52-.1,0,.62.12.75.14.32.06.65.14.97.22.32.08.63.18.94.28.16.05.86.32.82.3.56.25,1.11.53,1.63.85.8.48.91.59,1.42,1.03.51.43.97.92,1.41,1.42.12.13.22.26.33.39.01.01.02.02.03.03,0,.02.04.06.08.13.25.33.48.68.7,1.04.97,1.52,1.41,2.63,1.93,4.22,1.24,3.8,1.6,7.84,1.68,11.82.05,2.7-.27,5.42-.63,8.11,29.2-16.7,48.93-48.05,49.19-84.03Z"/>
            <path class="cls-3" d="M182.12,161.93c-.17.38-.36.76-.55,1.13-.45.89-.93,1.77-1.43,2.63-4.97,8.62-11.37,16.47-17.64,24.17-5.52,6.79-11.3,13.36-16.79,20.18-1.43,1.78-2.73,3.66-4.12,5.48-.1.14-.4.54-.47.62-.24.31-.48.63-.72.95-.59.76-1.18,1.52-1.76,2.28-.15.2-.3.4-.46.6,33.2-5.01,60.92-26.76,74.29-56.37-.17-5.61-.66-11.22-1.13-16.66-.68-7.99-1.43-16.01-1.23-24.04.19-7.99,1.51-15.9,1.7-23.9.17-8.05-.91-16.39-4.89-23.52-3.48-6.25-9.8-10.32-13.07-16.7-.78-1.51-1.37-3.08-1.81-4.7-17.63-17.39-41.83-28.14-68.55-28.14-3.1,0-6.15.15-9.18.43-4.27,3.9-8.21,8.15-11.48,12.88-5.19,7.51-8.07,17.48-2.55,25.65,5.06,7.51,15.51,9.32,23.8,10.57,4.94.76,9.92,1.26,14.87,2,4.11.61,8.76,1.42,12.38,2.97,1.64.7,3.04,1.53,4.11,2.54,1.12,1.05,1.66,2,2.04,3.4.38,1.42.34,3.38-.04,5.13-.51,2.34-1.54,4.51-2.73,6.58-2.97,5.19-7.07,9.72-11.21,14.02-4.36,4.54-8.99,8.81-13.6,13.1-6.26,5.84-12.09,12.11-17.97,18.34-3.8,4.02-7.49,8.14-10.91,12.49-3.26,4.16-6.41,8.53-8.54,13.38-1.7,3.84-2.86,8.23-1.12,12.27,1.19,2.75,3.58,4.72,6.34,5.75,6.17,2.32,13.75-.23,19.57-2.41,8.67-3.24,16.89-7.6,25.02-11.99,7.99-4.31,15.88-8.84,24.08-12.76,3.26-1.57,5.88-2.74,9.35-3.8.65-.2,1.3-.37,1.96-.53.3-.06.61-.13.91-.19.14-.02.29-.05.44-.07.07,0,.12-.02.16-.03.52-.05,1.04-.08,1.57-.07.23,0,.46.02.68.04.12.02.25.04.37.07.18.04.35.09.53.15.07.04.14.08.21.11.06.04.19.13.28.19.09.08.18.18.27.28.04.07.09.14.13.21.04.06.07.12.1.18.02.11.05.26.07.36,0,.2,0,.4,0,.59,0,.12,0,.19,0,.23-.01.03-.02.08-.03.17-.06.29-.12.58-.21.88-.18.7-.44,1.39-.71,2.07.05-.12-.28.65-.36.81Z"/>
            <path class="cls-3" d="M195.3,189.57c-.59-.9-1.22-1.79-1.92-2.63-3.04-3.74-7.19-6.46-11.67-8.17-9.63-3.67-20.42-1.68-30.3-.35-9.58,1.28-20.05,2.41-28.64-2.95-4.01-2.49-7.24-6.32-9.83-10.19-2.48-3.72-4.45-7.78-6.23-11.88-3.56-8.19-6.31-16.77-10.88-24.49-4.73-7.97-11.56-14.03-20.44-16.91-6.6-2.13-13.47-2.59-20.35-2.22-7.35.4-14.67,1.54-22.04,1.19-2.09-.1-4.11-.44-6.11-.91-.6,4.4-.93,8.89-.93,13.46,0,19.68,5.84,37.99,15.86,53.32,4.96,1.08,10.11.58,15.1.18,4.81-.39,9.88-.89,14.54.64,4.59,1.52,7.38,5.74,9.14,10.01,1.76,4.23,2.53,8.78,3.37,13.25.79,4.24,1.74,8.48,3.84,12.28.29.51.59,1,.9,1.47,10.81,4.14,22.54,6.41,34.8,6.41,28.4,0,53.96-12.13,71.79-31.5Z"/>
            <g class="cls-4">
              <path class="cls-5" d="M114.54,203.76s-.04.32-.04.35c-.06.35-.12.69-.18,1.04-.15.81-.33,1.61-.51,2.42-.39,1.72-.82,3.44-1.25,5.15-.62,2.5-1.18,5.02-1.62,7.56,4.12.53,8.31.8,12.57.8,8.98,0,17.66-1.21,25.91-3.48,3.99-9.32,8.34-18.51,10.67-28.4,1.2-5.08,2.38-11.62-.49-16.39-2.07-3.46-6.15-4.31-9.9-4.06-4.66.31-9.19,1.79-13.65,3.05-3.48.98-6.88,1.93-10.16,2-.53,0-1.06-.01-1.59-.07h0c-.11,0-.22-.04-.33-.06-.23-.05-.47-.12-.7-.19-.04-.01-.06-.02-.09-.03-.02-.01-.04-.02-.07-.03-.14-.07-.28-.15-.41-.24-.02-.02-.05-.05-.09-.08-.05-.04-.09-.09-.13-.14-.06-.09-.12-.2-.18-.3,0-.03-.02-.06-.03-.09-.04-.14-.07-.27-.1-.42,0-.08,0-.16-.02-.24,0-.31,0-.59.03-.88,0-.05.06-.4.08-.5.05-.26.11-.51.17-.76.26-1.03.62-2.02,1.02-3,.01-.02.02-.04.03-.07.06-.12.12-.26.17-.39.12-.27.24-.54.37-.8.27-.6.56-1.2.86-1.8,1.25-2.52,2.63-4.98,3.98-7.44,2.68-4.89,5.55-9.9,6.99-15.32,1.19-4.47.81-9.44-3.55-12-3.02-1.78-6.98-2.09-10.38-1.79-5.98.55-11.68,2.87-17.12,5.26-5.09,2.23-10.04,4.91-15.21,6.94,2.13-5.69,4.42-11.31,6.46-17.04,2.54-7.13,4.95-14.51,5.6-22.09.48-5.45-.36-11.99-5.7-14.83-2.88-1.53-6.32-1.65-9.5-1.26-4.89.58-9.76,2.12-14.25,4.14-4.45,2-8.58,4.63-12.95,6.79-1.91.94-3.86,1.78-5.93,2.27-.88.21-1.32.26-2.23.24-.61-.02-1.03-.12-1.64-.51-.02-.01-.04-.02-.06-.04-.02-.02-.05-.05-.12-.11-.14-.13-.26-.26-.38-.41.23.26-.16-.24-.16-.25-.11-.18-.21-.37-.3-.56-.36-.73-.56-1.95-.64-2.91-.18-2.07.37-4.09.98-6.06,1.44-4.72,3.64-9.17,5.12-13.87,1.35-4.26,2.11-9.05-.07-13.17-.49-.92-1.12-1.75-1.85-2.48-16.15,17.42-26.03,40.72-26.03,66.34,0,3.47.18,6.89.54,10.28,7.91,4.49,17.46,5.17,26.33,6.02,3.57.35,6.87.63,10.34,1.65.35.11.7.22,1.04.35.39.14.63.23.71.27.66.29,1.3.64,1.91,1.04.09.07.17.13.26.2-.01,0,.22.17.25.21.25.2.47.42.69.65.46.47.58.63,1.03,1.44.57,1.01.93,2.58,1.02,3.88.14,2.08-.11,4.16-.51,6.2-.93,4.78-2.65,9.15-4.71,13.54-2.2,4.68-4.36,9.39-6.16,14.23-1.23,3.3-2.35,6.78-2.88,10.31,6.07,5.85,12.91,10.93,20.34,15.06,4.97-1.28,9.69-3.35,14.43-5.25,5-2,10.17-3.83,15.44-4.96,1.8-.39,3.36-.64,5.23-.58.12.01.73.07.76.06.24.04.49.1.73.16.13.04.26.08.38.13h.03c.18.09.34.19.51.3,0,.02.3.26.38.35.02.02.04.04.05.05.02.04.05.09.11.17.04.08.15.31.2.42.07.19.12.4.17.61.02.12.04.23.06.35,0,0,0,.01,0,.02.02.27.03.55.03.82.02.65-.03,1.3-.1,1.95-.01.11-.02.22-.04.33Z"/>
              <path class="cls-5" d="M209.27,170.06c-2.46-4.87-4.94-9.71-6.93-14.78-1.1-2.83-2.02-5.72-2.7-8.68-.7-3.1-.94-6.25-1.11-9.42-.35-6.61-.19-13.23-.29-19.85-.09-6.38-.51-12.79-1.88-19.05-1.48-6.73-4.27-13.13-8.06-18.88-1.99-3.01-4.27-5.81-6.35-8.75-1.84-2.58-3.61-5.21-5.3-7.89-3.12-4.97-5.88-10.14-8.29-15.48-1.9-4.21-3.57-8.55-5.12-12.91-12.14-5.42-25.58-8.43-39.74-8.43-7.71,0-15.23.89-22.43,2.6-1.31,4.33-1.42,8.88.57,13.46,1.88,4.32,5.49,7.78,9.15,10.61,4.86,3.75,10.24,6.76,15.71,9.5,8.32,4.14,17.63,8.16,23.84,15.34,6.6,7.63,6.17,17.77,5.33,27.24-.5,5.74-.37,11.61,1.1,17.21,1.2,4.56,3.43,8.75,6.14,12.58,3.07,4.32,6.65,8.27,10.1,12.29,4.33,5.04,8.78,9.93,10.56,16.49,1.69,6.17.99,12.75.04,18.98-1.02,6.67-2.39,13.3-2.59,20.07,11.62-8.5,21.3-19.51,28.23-32.25Z"/>
            </g>
          </g>
        </g>
      </g>
    </g>
  </g>
</svg>