<?xml version="1.0" encoding="UTF-8"?>
<svg id="Layer_2" data-name="Layer 2" xmlns="http://www.w3.org/2000/svg" viewBox="0 0 292.57 253.21">
  <defs>
    <style>
      .cls-1 {
        fill: #ef559e;
      }

      .cls-2 {
        fill: #f498c0;
      }

      .cls-3 {
        fill: #f283b4;
      }

      .cls-4 {
        fill: #c21766;
      }

      .cls-5 {
        fill: #f8bdd7;
      }
    </style>
  </defs>
  <g id="Capa_1" data-name="Capa 1">
    <g>
      <g>
        <path class="cls-1" d="M219.68,59.88c31.11,42.04,22.25,101.34-19.79,132.45-42.04,31.1-101.34,22.24-132.45-19.8-31.1-42.04-22.24-101.34,19.8-132.44,42.04-31.11,101.34-22.25,132.44,19.8Z"/>
        <g>
          <path class="cls-4" d="M87.23,52.1c3.93-2.37,6.33-7.23,3.36-11.44-.26-.35-1.03-.99-1.92-1.61-.48.34-.96.68-1.43,1.04-3.91,2.88-7.53,6.02-10.85,9.36,2.46,3.47,6.88,5.03,10.84,2.64Z"/>
          <path class="cls-4" d="M232.35,136.86c-2.9-6.33-7.19,3.27-5.2,7.35,1.12,2.32,3.03,4.07,5.23,4.83,1.84-5,3.26-10.13,4.24-15.34-2.07.29-1.81,2.64-4.26,3.15Z"/>
          <path class="cls-4" d="M228.27,81.14c-2.91-6.34-7.19,3.26-5.21,7.34,2.16,4.47,7.24,6.82,11.72,4.13.14-.09.29-.18.45-.28-1.16-4.45-2.66-8.84-4.48-13.14-.57.77-1.09,1.66-2.47,1.96Z"/>
          <path class="cls-4" d="M199.49,49.85c2.16,4.47,7.24,6.82,11.72,4.13.8-.48,1.55-1.07,2.19-1.73-3.78-4.15-7.88-7.88-12.21-11.21-1.75,1.68-2.91,6.29-1.69,8.81Z"/>
          <path class="cls-4" d="M168.18,200.17c-2.43.09-2.02,2.65-4.59,3.2-2.7-5.89-6.6,2-5.53,6.42,5.57-.85,11.09-2.21,16.5-4.08-.21-.77-.56-1.55-1.1-2.3-.6-.85-4.11-3.27-5.28-3.24Z"/>
          <path class="cls-4" d="M179.14,111.84c-.89-1.26-6.1-4.86-7.84-4.8-3.61.12-2.99,3.93-6.79,4.75-4.31-9.4-10.66,4.82-7.72,10.89,3.21,6.62,10.73,10.11,17.37,6.12,5.82-3.51,9.41-10.72,4.98-16.95Z"/>
          <path class="cls-4" d="M106.41,165.06c-.6-.85-4.1-3.27-5.28-3.23-2.44.08-2.01,2.64-4.58,3.2-2.91-6.34-7.18,3.25-5.21,7.34,2.17,4.47,7.24,6.83,11.72,4.13,3.92-2.37,6.34-7.23,3.35-11.44Z"/>
          <path class="cls-4" d="M124.01,202.84c-.6-.86-4.11-3.28-5.29-3.24-2.44.08-2.02,2.64-4.58,3.2-1.82-3.96-4.17-1.7-5.19,1.55,5.21,2.04,10.57,3.62,16.03,4.71.65-1.99.47-4.18-.97-6.22Z"/>
          <path class="cls-4" d="M102.52,36.85c3.5-.14,6.45-2.75,5.98-6.4-.08-.62-.25-1.33-.49-2.03-3.83,1.57-7.59,3.38-11.26,5.48.27,1.69,3.25,3.05,5.78,2.95Z"/>
          <path class="cls-4" d="M125.41,44.18c10.47,5.31,23.38-4.07,22.48-14.8-.26-3.12-.93-5.71-1.87-7.84-10.5-.28-21.08,1.18-31.29,4.45-1.7,6,3.31,14.46,10.68,18.19Z"/>
          <path class="cls-4" d="M199.39,127.49c-1.42,3.05-4.88-2.25-9.76,3.62-4.83,5.81.57,16.66,9.2,21.04,10.47,5.3,23.38-4.08,22.48-14.81-1.57-18.76-17.79-18.76-21.91-9.85Z"/>
          <path class="cls-4" d="M137.21,141.73c-1.57-18.76-17.78-18.76-21.91-9.84-1.41,3.05-4.88-2.25-9.75,3.61-4.84,5.81.57,16.66,9.21,21.05,10.45,5.3,23.37-4.07,22.46-14.81Z"/>
          <path class="cls-4" d="M61.91,106.98c5.7-2.16,7.04-5.81,7.78-11.51.98-7.55-3.45-11.41-10.74-12.45-1.38-.19-2.74-.25-4.04-.13-2.79,7.43-4.61,15.17-5.48,23.03,3.57,2.52,8.41,2.59,12.48,1.05Z"/>
          <path class="cls-4" d="M186.51,98.95c-2.14,4.59-2.89,11.84.66,15.99,3.57,4.16,9.52,4.58,14.36,2.76,5.7-2.16,7.04-5.81,7.78-11.51.97-7.55-3.44-11.41-10.74-12.44-5.06-.71-9.86.46-12.07,5.2Z"/>
          <path class="cls-4" d="M224.32,107.22c-2.14,4.59-2.9,11.85.66,15.99,3.17,3.71,8.23,4.44,12.71,3.28.88-8.07.74-16.25-.47-24.34-.28-.05-.55-.09-.83-.14-5.07-.71-9.86.46-12.07,5.21Z"/>
          <path class="cls-4" d="M143.79,122.07c5.7-2.15,7.04-5.81,7.78-11.51.96-7.54-3.44-11.41-10.74-12.45-5.07-.71-9.85.46-12.06,5.2-2.14,4.6-2.9,11.86.66,15.99,3.57,4.16,9.52,4.59,14.37,2.76Z"/>
          <path class="cls-4" d="M60.43,134.71c.97-6.41-5.95-8.86-10.89-7.13.61,5.07,1.64,10.12,3.08,15.09,3.52-.18,7.04-2.93,7.81-7.96Z"/>
          <path class="cls-4" d="M226.62,159.1c.1.65.26,1.22.47,1.73,1.21-2.27,2.32-4.58,3.34-6.93-2.3.45-4.27,2.16-3.82,5.19Z"/>
          <path class="cls-4" d="M213.94,100.92c1,6.69,8.97,6.01,9.94-.39,1-6.59-10.99-6.66-9.94.39Z"/>
          <path class="cls-4" d="M57.7,117.42c.77-5.02-5.99-6.25-8.8-3.45-.06,2.28-.03,4.56.07,6.85,2.54,3.23,7.95,1.79,8.72-3.39Z"/>
          <path class="cls-4" d="M114.74,69.96c1.54,10.43,13.97,9.37,15.48-.61,1.56-10.28-17.13-10.38-15.48.61Z"/>
          <path class="cls-4" d="M172.69,66.83c2.47,16.57,22.23,14.89,24.63-.97,2.48-16.35-27.23-16.51-24.63.97Z"/>
          <path class="cls-4" d="M81.62,130.26c5.28-1.89-.95-7.08,2.63-10.82,1.92-2.01,7.7-8.93-5.31-10.69-6.6-.89-10.68,5.03-12.21,8.38-1.67,3.68-.98,11.74,3.23,13.63,3.51,1.58,8.16.75,11.66-.5Z"/>
          <path class="cls-4" d="M214.79,161.43c-6.6-.9-10.68,5.02-12.2,8.38-1.67,3.67-.98,11.73,3.22,13.62,1.11.5,2.33.76,3.61.84,5.11-4.93,9.56-10.33,13.34-16.1.94-2.64.04-5.66-7.96-6.74Z"/>
          <path class="cls-4" d="M160.52,172.39c-6.6-.89-10.68,5.02-12.21,8.38-1.67,3.67-.97,11.73,3.23,13.62,3.51,1.59,8.18.75,11.66-.5,5.28-1.89-.95-7.06,2.63-10.8,1.92-2.02,7.7-8.93-5.31-10.69Z"/>
          <path class="cls-4" d="M102.66,77.17c-10.27-26.3-44.17,13.53-18.91,20.58,11.63,3.25,23.38-9.12,18.91-20.58Z"/>
          <path class="cls-4" d="M177.75,179.48c11.63,3.25,23.38-9.12,18.91-20.59-10.26-26.3-44.17,13.53-18.91,20.59Z"/>
          <path class="cls-4" d="M166.85,143.52c-10.26-26.3-44.17,13.53-18.9,20.58,11.63,3.25,23.38-9.12,18.9-20.58Z"/>
          <path class="cls-4" d="M170,46.33c-10.26-26.3-44.16,13.53-18.9,20.59,11.63,3.25,23.37-9.12,18.9-20.59Z"/>
          <path class="cls-4" d="M74.59,154.83c-.64-7.33-13.78-19.67-14.74-5.57-.14,1.91-1.87,2.57-3.88,2.97,1.88,4.58,4.16,9.05,6.81,13.38,6.32-.17,12.4-3.9,11.8-10.78Z"/>
          <path class="cls-4" d="M154.96,88.85c1.93,13.67,26.16,12.2,24.99-1.21-.64-7.33-13.78-19.67-14.75-5.57-.33,4.86-10.98,1.6-10.25,6.78Z"/>
          <path class="cls-4" d="M142.24,178.6c-.81-9.29-17.46-24.92-18.67-7.06-.42,6.16-13.92,2.04-13,8.61,2.46,17.32,33.15,15.46,31.67-1.55Z"/>
          <path class="cls-4" d="M113.97,48.66c.18-7.47-9.55-9.82-14.64-5.42-4.88,4.2-2.78,14.41,2.89,17.12,7.6,3.63,11.59-5.71,11.75-11.69Z"/>
          <path class="cls-4" d="M199.75,71.78c-5.2,4.49-2.96,15.4,3.1,18.3,8.13,3.89,12.4-6.11,12.56-12.51.19-7.99-10.21-10.5-15.66-5.8Z"/>
          <path class="cls-4" d="M181.68,44.62c6.57,3.14,10.44-3.4,11.48-9.1-4.78-2.94-9.78-5.42-14.95-7.44-4.1,4.49-1.95,13.95,3.47,16.54Z"/>
          <path class="cls-4" d="M67.15,75.56c6.96-.14,8.67-9.72,5.08-14.39-.98-1.27-2.13-2.34-3.38-3.17-3.54,4.54-6.62,9.34-9.23,14.35,1.99,1.98,4.68,3.27,7.54,3.21Z"/>
          <path class="cls-4" d="M224.32,71.24c.87-.02,1.61-.24,2.25-.6-2.03-3.68-4.32-7.28-6.89-10.75-.38-.52-.77-1.03-1.17-1.54-.65.58-1.23,1.38-1.67,2.45-2.01,4.72,2.35,10.55,7.48,10.44Z"/>
          <path class="cls-4" d="M133.25,204.45c-.81,1.9-.86,3.92-.36,5.84,5.79.65,11.66.78,17.5.37.08-2.29-.51-4.61-1.82-6.3-4.3-5.58-12.09-7.53-15.32.09Z"/>
          <path class="cls-4" d="M106.47,93.59c-2.75,6.47,3.22,14.46,10.25,14.31,6.96-.14,8.68-9.72,5.08-14.39-4.3-5.58-12.09-7.53-15.32.08Z"/>
          <path class="cls-4" d="M101.68,191.6c-4.3-5.58-12.09-7.53-15.32.09,5.14,3.9,10.63,7.22,16.35,9.95,1.35-3.18,1.02-7.4-1.02-10.04Z"/>
          <path class="cls-4" d="M86.87,182.13c2.6-5.03-.71-15.62-6.81-16.33-5.38-.63-9.4,4.05-10.72,9.21,3.39,4.29,7.07,8.2,11.01,11.74,2.79-.88,5.48-2.6,6.52-4.62Z"/>
          <path class="cls-4" d="M99.04,151.34c1.67-6.75.39-13.4-7.82-13.67-7.26-.24.28,9.02-6.04,7.37-4.77-1.23-10.58,6.38-1.05,10.8,5.86,2.71,13.15,2.65,14.91-4.49Z"/>
          <path class="cls-4" d="M159.61,33.25c9.83,3.37,4.77-2.94,7.6-4.78,2.69-1.74,5.67,3.23,6.75-1.94-5.38-1.82-10.89-3.15-16.49-3.98-.42.58-.78,1.37-1.05,2.44-.96,3.76-1.29,6.73,3.19,8.26Z"/>
          <path class="cls-4" d="M133.47,80.67c-.95,3.75-1.3,6.72,3.18,8.26,9.84,3.37,4.77-2.94,7.61-4.78,3.14-2.05,6.67,5.09,7.12-5.45.32-7.35-11.45-12.07-10.9-3.44.21,3.35-5.25-1.54-7.02,5.41Z"/>
          <path class="cls-4" d="M96.37,125.78c9.84,3.37,4.77-2.94,7.6-4.78,3.14-2.04,6.68,5.09,7.13-5.44.32-7.35-11.44-12.07-10.89-3.44.21,3.35-5.24-1.54-7.01,5.41-.96,3.75-1.3,6.72,3.17,8.26Z"/>
          <path class="cls-4" d="M195.07,190.02c-8.23-6.37-5.47,1.24-8.74,2.07-3.63.92-4.68-6.97-8.5,2.86-1.24,3.18.16,6.66,2.25,8.64,6-2.51,11.82-5.68,17.36-9.52.03-1.36-.6-2.68-2.37-4.04Z"/>
        </g>
      </g>
      <g>
        <path class="cls-3" d="M229.18,2.3c-7.34-4.89-18.04-2-32.72,8.87-5.94,4.39-12.36,9.99-19.1,16.58,3.48,1.32,6.89,2.87,10.22,4.61,5.3-5,10.36-9.31,15.09-12.81,11.75-8.7,18.51-10.06,20.74-8.58,2.7,1.8,4.88,12.84-6.17,41.77-9.84,25.74-26.91,57.38-48.07,89.12-27.35,41.02-56.98,75.33-79.24,91.81-11.75,8.7-18.51,10.06-20.73,8.58-2.71-1.8-4.89-12.84,6.17-41.77,1.63-4.28,3.46-8.72,5.49-13.31-2.75-2.44-5.39-5.06-7.89-7.86-2.75,6.04-5.21,11.88-7.34,17.45-11.25,29.42-11.99,47.64-2.23,54.16,7.34,4.89,18.04,1.99,32.72-8.87,23.19-17.16,53.73-52.45,81.72-94.41,21.58-32.36,39.03-64.74,49.12-91.18,11.25-29.42,12-47.64,2.23-54.16Z"/>
        <g>
          <path class="cls-2" d="M213.15,43.2c-2.01.86-4.05,1.77-6.12,2.72,2.72,2.46,5.32,5.1,7.78,7.92.8-.36,1.6-.7,2.38-1.04.01-.02.02-.04.03-.06,1.84-4.82,3.32-9.14,4.48-13.01-2.74,1.05-5.59,2.19-8.55,3.47Z"/>
          <path class="cls-2" d="M233.62,35.72c-.91,3.74-2.1,7.75-3.54,12.06,19.1-6.6,27.08-5.03,28.68-2.84,1.84,2.53.23,13.24-19.05,35.6-17.17,19.91-42.97,42.97-72.65,64.93-1.53,1.13-3.06,2.25-4.62,3.38-30.86,22.41-61.81,40.73-87.12,51.6-28.46,12.2-39.59,10.46-41.5,7.84-1.84-2.54-.23-13.24,19.06-35.6,2.64-3.07,5.49-6.2,8.52-9.4-1.86-3.24-3.5-6.53-4.94-9.9-4.14,4.26-7.98,8.44-11.47,12.49-19.75,22.91-26.35,39.23-19.59,48.53,6.9,9.5,25.08,8.03,54.02-4.38,26.01-11.16,57.67-29.89,89.14-52.74,1.59-1.15,3.14-2.29,4.7-3.44,30.28-22.41,56.68-46.02,74.33-66.5,19.76-22.9,26.35-39.22,19.6-48.53-5.1-7.03-16.36-8.04-33.56-3.1Z"/>
        </g>
        <g>
          <path class="cls-5" d="M239.7,80.54c1-1.17,1.96-2.3,2.87-3.41-.51,0-1.01-.02-1.53-.02-3.6-.03-7.32.02-11.16.14,1.48,3.27,2.75,6.61,3.84,9.97,2.09-2.26,4.09-4.49,5.98-6.68Z"/>
          <path class="cls-5" d="M255.41,77.71c-2.33,3.07-4.93,6.27-7.83,9.63-.09.12-.19.23-.28.34,25.94.98,34.16,6.41,34.8,9.35.45,2.09-1.9,6.43-9.89,12.34-20.89,15.45-68.01,32.76-120.07,44.1-37.27,8.11-72.97,12.46-100.52,12.22-30.96-.26-40.45-6.33-41.14-9.5-.46-2.09,1.9-6.42,9.89-12.33,7.04-5.2,17.04-10.62,29.22-15.94-.46-3.68-.7-7.38-.72-11.07-14.45,6.12-26.34,12.46-34.69,18.63-10.78,7.98-15.45,15.69-13.87,22.93,2.5,11.47,19.74,17.43,51.23,17.7,28.3.24,64.82-4.19,102.83-12.46,54.2-11.8,101.74-29.4,124.04-45.9,10.78-7.97,15.46-15.69,13.87-22.92-2.08-9.59-14.47-15.32-36.86-17.11Z"/>
        </g>
      </g>
    </g>
  </g>
</svg>