<?xml version="1.0" encoding="UTF-8"?>
<svg id="Layer_2" data-name="Layer 2" xmlns="http://www.w3.org/2000/svg" viewBox="0 0 168.51 168.51">
  <defs>
    <style>
      .cls-1 {
        fill: #f15b3e;
      }

      .cls-2 {
        fill: #f79539;
      }
    </style>
  </defs>
  <g id="Capa_1" data-name="Capa 1">
    <g>
      <path class="cls-1" d="M143.83,24.68c32.9,32.9,32.9,86.25,0,119.15-32.9,32.9-86.25,32.9-119.15,0-32.9-32.9-32.9-86.25,0-119.15,32.91-32.9,86.26-32.9,119.16,0Z"/>
      <g>
        <path class="cls-2" d="M104.3,2.41c-2.06-.5-4.14-.92-6.22-1.27-6.89,14.68-18.92,34.74-39.32,55.14C37.1,77.94,15.81,90.18.94,96.83c.32,2.09.7,4.17,1.18,6.23,15.5-6.79,38.07-19.52,60.99-42.44,21.59-21.59,34.14-42.87,41.19-58.22Z"/>
        <path class="cls-2" d="M158.51,53.67c-6.32,14.92-18.71,37.54-41.76,60.6-23.05,23.05-45.68,35.44-60.6,41.76-3.41,1.45-6.59,2.65-9.48,3.66,2.68,1.33,5.42,2.51,8.2,3.55,1.07-.43,2.16-.87,3.29-1.34,15.52-6.55,39.04-19.37,62.95-43.28,23.36-23.36,36.13-46.34,42.81-61.86-.96-2.79-2.07-5.54-3.33-8.22-.62,1.64-1.31,3.36-2.06,5.14Z"/>
        <path class="cls-2" d="M65.81,165.7c-.4.17-.8.34-1.19.5,3.6.86,7.26,1.48,10.93,1.86,15.06-7.27,35-19.56,55.21-39.78,18.23-18.23,30.01-36.23,37.48-50.64-.29-3.65-.81-7.29-1.57-10.89-6.71,14.84-18.9,35.82-40.26,57.18-23.05,23.05-45.68,35.44-60.6,41.76Z"/>
        <path class="cls-2" d="M84.12,0c-7.25,13.47-18.35,29.92-35.03,46.6C31.38,64.33,13.92,75.73.02,82.94c-.04,2.28.02,4.56.17,6.83,14.81-7.38,33.91-19.46,53.25-38.81C71.69,32.71,83.48,14.69,90.95.27c-2.28-.18-4.55-.27-6.83-.26Z"/>
        <path class="cls-2" d="M4.78,56.21c9.33-6.48,19.3-14.56,29.33-24.59,9.26-9.26,16.85-18.47,23.07-27.17-3.85,1.3-7.63,2.89-11.3,4.77-4.68,5.9-10.03,11.96-16.12,18.06-6.79,6.79-13.55,12.65-20.08,17.71-1.92,3.64-3.55,7.39-4.9,11.22Z"/>
        <path class="cls-2" d="M136.08,133.6c-16.44,16.44-32.66,27.45-46.02,34.71,5.64-.38,11.25-1.34,16.73-2.86,10.54-6.93,22.04-15.91,33.64-27.49,9.94-9.94,17.96-19.82,24.41-29.08,1.65-5.41,2.75-10.96,3.28-16.55-7.21,12.37-17.5,26.74-32.04,41.28Z"/>
        <path class="cls-2" d="M119.85,15.01c-6.33,14.92-18.71,37.55-41.76,60.6-23.05,23.06-45.68,35.44-60.6,41.77-3.27,1.39-6.33,2.55-9.12,3.53.9,1.87,1.88,3.71,2.93,5.53,2.55-.91,5.28-1.97,8.19-3.2,15.52-6.55,39.04-19.37,62.95-43.27,23.91-23.91,36.73-47.43,43.28-62.95.72-1.71,1.38-3.37,1.99-4.96-1.79-1.08-3.62-2.09-5.46-3.02-.71,1.89-1.5,3.89-2.39,5.97Z"/>
        <path class="cls-2" d="M39.43,36.95c-13.12,13.12-26.1,22.78-37.61,29.84-.55,2.62-.97,5.27-1.28,7.92,12.95-7.47,28.01-18.2,43.23-33.42C58.07,26.98,68.41,12.82,75.81.42c-2.66.27-5.32.66-7.95,1.18-6.91,10.93-16.16,23.07-28.43,35.35Z"/>
        <path class="cls-2" d="M129.52,24.67c-6.33,14.93-18.7,37.55-41.76,60.6-23.05,23.05-45.68,35.43-60.6,41.76-4.66,1.97-8.88,3.5-12.53,4.67,1.22,1.79,2.51,3.53,3.88,5.24,3.21-1.09,6.77-2.42,10.65-4.05,15.52-6.55,39.04-19.37,62.95-43.28,23.9-23.91,36.73-47.43,43.28-62.95,1.06-2.51,1.99-4.89,2.81-7.14-1.68-1.4-3.39-2.73-5.15-3.98-.98,2.79-2.14,5.84-3.53,9.12Z"/>
        <path class="cls-2" d="M110.18,5.34c-6.32,14.92-18.7,37.54-41.76,60.6-23.06,23.05-45.68,35.43-60.6,41.76-1.38.59-2.71,1.13-4.02,1.64.61,1.96,1.29,3.91,2.05,5.83,1.28-.5,2.61-1.04,3.96-1.61,15.52-6.55,39.04-19.37,62.95-43.28,23.9-23.9,36.73-47.42,43.28-62.95.14-.33.27-.65.4-.97-1.91-.79-3.84-1.5-5.8-2.14-.15.37-.3.74-.47,1.11Z"/>
        <path class="cls-2" d="M148.85,44c-6.33,14.92-18.71,37.55-41.76,60.6-23.05,23.06-45.68,35.44-60.6,41.77-4.99,2.11-9.47,3.71-13.3,4.91,2.07,1.58,4.18,3.05,6.35,4.41,2.75-.97,5.74-2.11,8.94-3.46,15.52-6.55,39.04-19.37,62.95-43.27,23.9-23.9,36.72-47.43,43.27-62.95.71-1.68,1.36-3.29,1.96-4.86-1.31-2.19-2.72-4.33-4.24-6.42-.99,2.84-2.17,5.94-3.58,9.28Z"/>
        <path class="cls-2" d="M143.13,23.99c-1.06,3.12-2.35,6.59-3.95,10.35-6.33,14.91-18.71,37.54-41.76,60.6-23.06,23.05-45.68,35.43-60.6,41.76-5.33,2.26-10.08,3.93-14.06,5.15.62.67,1.26,1.33,1.91,1.98,1,1,2.03,1.98,3.08,2.93,3.31-1.12,7.03-2.49,11.06-4.2,15.52-6.55,39.04-19.37,62.95-43.28,23.91-23.9,36.73-47.42,43.28-62.95,1.08-2.56,2.03-5,2.86-7.29-1.3-1.49-2.65-2.95-4.08-4.38-.23-.23-.47-.46-.7-.68Z"/>
      </g>
    </g>
  </g>
</svg>