<?xml version="1.0" encoding="UTF-8"?>
<svg id="Layer_2" data-name="Layer 2" xmlns="http://www.w3.org/2000/svg" viewBox="0 0 123.57 97.18">
  <defs>
    <style>
      .cls-1 {
        fill: #ffe463;
      }

      .cls-2 {
        fill: #3176ff;
      }

      .cls-3 {
        fill: #4aaf3b;
      }
    </style>
  </defs>
  <g id="OBJECTS">
    <g>
      <path class="cls-2" d="M75.64,49.8c0-.88-.16-1.74-.43-2.55,0-.02,0-.04,0-.05-.28-1.16-.81-2.16-1.59-3.02-.63-.97-1.46-1.73-2.49-2.29-.68-.39-1.39-.69-2.12-.89-1.26-.56-2.6-.88-3.99-.9-1.58-.02-3.48.43-4.81,1.3-1.97,1.28-3.39,3.02-4.1,5.27-.63,1.4-.93,2.9-.98,4.45-.06,2.05.64,4.03,1.64,5.79.95,1.67,2.49,2.89,4.24,3.62,1.76.74,3.9,1.05,5.77.45.6-.19,1.17-.45,1.71-.74.57-.19,1.14-.43,1.69-.74,2.4-1.35,4.05-3.81,4.78-6.44.44-1,.7-2.08.7-3.24Z"/>
      <path class="cls-3" d="M47.18,75.23c.21.04.41.04.6.02,9.83,5.23,24.76-4.63,32.59-9.95,10.29-6.99,21.63-22.52,11.78-34.49-6.52-7.92-18.61-5.88-27.08-2.95-10.38,3.59-21.17,9.66-28.6,17.9-10.42,11.56-3.95,26.44,10.71,29.48ZM39.47,47.28c5.98-6.29,13.88-10.9,21.82-14.23,7.08-2.97,17.14-6.3,24.55-2.62,4.02,2,6.21,6.4,6.3,10.8.17,7.83-5.71,14.77-11.5,19.38-4.33,3.45-9.35,6.28-14.32,8.69-4.79,2.33-11.26,5.51-16.87,4.44.2-.8-.1-1.67-1.15-1.88-6.22-1.29-12.81-4.84-13.9-11.73-.78-4.92,1.81-9.42,5.06-12.84Z"/>
      <path class="cls-3" d="M106.92,8.45c-7.61-3.17-16.06-3.12-24.15-1.5.18-.4-.21-1.01-.72-.86-23.25,6.58-47.59,16.84-64.8,34.32-7.3,7.42-13.89,16.94-13.99,27.75-.09,10.21,6.34,18.4,14.9,23.33,20.1,11.57,45.28,3.59,63.95-7.06,17.65-10.07,38.59-26.9,41.29-48.52,1.49-11.93-5.46-22.88-16.46-27.46ZM120.02,34.56c-1.52,19.99-21.15,36.07-37.1,45.49-16.36,9.66-38.13,17.81-57.02,11.03-9.95-3.58-19.09-11.64-18.99-22.92.09-10.31,6.92-19.33,13.93-26.25,13.76-13.58,31.45-21.84,49.12-29.38.2.86.96,1.54,2.04,1.16,9.47-3.31,20.17-5.48,30.07-2.84,10.77,2.88,18.82,12.29,17.95,23.72Z"/>
      <path class="cls-2" d="M56.89,71.42c-.55-1.78-1.7-2.9-3.02-4.09-1.94-1.76-4.55-2.36-7-1.33-1.05.45-1.86,1.07-2.56,1.97-.49.63-.8,1.25-1.01,1.92-.97,1.31-1.5,2.79-1.55,4.51,0,.18,0,.36,0,.54,0,1.08.18,1.77.57,2.69.36.86.84,1.45,1.41,2.19.82.81,1.78,1.37,2.89,1.69,1.05.28,2.1.29,3.14.07,1.23.01,2.53-.27,3.49-.9.42-.27.79-.57,1.13-.9,1.17-.76,2.07-1.89,2.31-3.22.32-1.73.74-3.4.2-5.15Z"/>
      <path class="cls-2" d="M10.46,70.46c-1.16-1.07-2.61-1.76-4.22-1.75-1.19,0-2.31.28-3.37.85-1.21.65-2.38,2.16-2.69,3.5-.35,1.55-.2,3.1.59,4.51.8,1.42,2.06,2.26,3.57,2.78.61.21,1.26.23,1.9.29,1.43.15,3.24-.77,4.22-1.75,1.03-1.03,1.81-2.73,1.75-4.22-.07-1.54-.58-3.14-1.75-4.22Z"/>
      <path class="cls-2" d="M83.57,6.41s0-.1.01-.14c.15-3.13-2.79-5.97-5.86-5.95-.64-.22-1.32-.35-2.03-.31-1.85.08-3.45.73-4.83,2-1.3,1.2-2.2,2.87-2.63,4.59-.15.61-.2,1.25-.18,1.89-.04.6-.04,1.21,0,1.8.14,1.68.62,3.44,1.92,4.63,1.27,1.16,2.87,1.95,4.63,1.92,3.72-.07,7.24-1.43,8.78-5.07.76-1.8.74-3.65.18-5.35Z"/>
      <path class="cls-1" d="M46.87,74.12s0-.07,0-.09c0-.07-.2-.74-.1-.37-.33-1.25-2.11-1.19-2.47,0-.05.17-.07.36-.08.54-.03.62.44,1.1.98,1.29.66.24,1.45-.19,1.64-.86.03-.09.04-.21.04-.3,0-.14,0-.2-.02-.22Z"/>
      <path class="cls-1" d="M53.58,74.3c-.49-.15-1.07-.14-1.51.16-.85.57-1.07,1.72-.32,2.49,0,0,.02.02.03.03.51.53,1.34.6,1.96.25.6-.33.86-.9.88-1.56.02-.64-.46-1.19-1.04-1.37Z"/>
      <path class="cls-1" d="M50.53,69.34c-1.71,0-1.71,2.66,0,2.66s1.71-2.66,0-2.66Z"/>
      <path class="cls-1" d="M61.2,53.17c-.06,0-.11,0-.17-.01-.79-.05-1.55.73-1.51,1.51.03.77.67,1.57,1.51,1.51.06,0,.11,0,.17-.01.78-.05,1.54-.65,1.5-1.5-.04-.86-.66-1.44-1.5-1.5Z"/>
      <path class="cls-1" d="M70.33,52.93s-.02,0-.03-.01c-.14-.03-.28-.05-.42-.05-.63-.03-1.09.44-1.29.99,0,.02-.01.03-.02.05-.17.45.02,1.05.36,1.37.36.34.77.5,1.27.49.77-.01,1.42-.65,1.42-1.42,0-.72-.58-1.35-1.29-1.41Z"/>
      <path class="cls-1" d="M65.79,43.86c-.05.02-.1.04-.15.06-1.39.51-1.4,2.33,0,2.84.05.02.1.04.15.06.95.35,1.94-.55,1.94-1.48s-.99-1.83-1.94-1.48Z"/>
      <path class="cls-1" d="M60.59,48.15c-.22-.13-.46-.22-.72-.22s-.5.09-.72.22c-1.8.67-1.57,3.84.72,3.84s2.52-3.16.72-3.84Z"/>
      <path class="cls-1" d="M71.2,47.94c-1.37,0-1.37,2.12,0,2.12s1.37-2.12,0-2.12Z"/>
      <path class="cls-1" d="M72.08,7.34c0,.11.01.22.02.33.09,1.85,2.79,1.85,2.87,0,0-.11.01-.22.02-.33.09-1.87-2.99-1.87-2.91,0Z"/>
      <path class="cls-1" d="M79.61,11.03c-.07-.08-.12-.13-.08-.08-.24-.31-.67-.53-1.05-.27-.58.39-.8,1.09-.44,1.73.37.64,1.1.74,1.75.55,1.01-.29.88-1.89-.19-1.92Z"/>
      <path class="cls-1" d="M80.68,3.52c-.65-.6-1.66-.64-2.3,0-.07.07-.15.15-.22.22-.46.46-.68,1.4-.25,1.97.2.27.31.38.58.58.57.42,1.5.22,1.97-.25.07-.07.15-.15.22-.22.6-.6.65-1.7,0-2.3Z"/>
      <g>
        <path class="cls-1" d="M5.21,75.91c-.1-.29-.27-.54-.5-.73.04.02.08.05.12.07-.11-.1-.19-.16-.28-.21,0,0-.01-.01-.02-.02-.05-.03-.13-.06-.2-.09,0,0,0,0,0,0,0,0,0,0-.01,0-.04-.02-.09-.03-.12-.04,0,0,.02.01.03.02-.02,0-.04-.01-.07-.02.01,0,.02,0,.04,0,0,0,0,0,0,0-.04,0-.09-.01-.13-.02-.05-.01-.1-.02-.14-.03-.97-.14-1.93.45-1.93,1.51s.99,1.65,1.98,1.51c.2-.03.38-.12.56-.21.58-.27.9-1.13.7-1.72Z"/>
        <path class="cls-1" d="M3.9,74.83s.03,0,.05,0c-.28-.05-.2-.04-.05,0Z"/>
      </g>
      <path class="cls-1" d="M6.16,72.04c-.37-.3-.89-.37-1.26,0-.33.33-.35.93,0,1.26.12.11.25.27.33.41.35.6,1.11.38,1.34-.18.23-.56.06-1.12-.41-1.49Z"/>
      <path class="cls-1" d="M8.53,75.79c-1.57,0-1.57,2.44,0,2.44s1.57-2.44,0-2.44Z"/>
    </g>
  </g>
</svg>