<?xml version="1.0" encoding="UTF-8"?>
<svg xmlns="http://www.w3.org/2000/svg" viewBox="0 0 749.54 1185.23">
  <defs>
    <style>
      .cls-1 {
        fill: #f36b35;
      }

      .cls-2 {
        fill: #eeeff8;
      }

      .cls-3 {
        fill: #cec8c2;
      }

      .cls-3, .cls-4, .cls-5, .cls-6 {
        mix-blend-mode: multiply;
      }

      .cls-7 {
        fill: #36759e;
      }

      .cls-8 {
        fill: #fff;
      }

      .cls-9 {
        fill: #96d7df;
      }

      .cls-10 {
        fill: #e04c26;
      }

      .cls-11 {
        isolation: isolate;
      }

      .cls-4 {
        fill: #95908f;
      }

      .cls-5 {
        fill: #c4c1be;
      }

      .cls-12 {
        fill: #d0ccc8;
      }

      .cls-13 {
        fill: #d1dbe0;
      }

      .cls-14 {
        fill: #f08a49;
      }

      .cls-15 {
        fill: #febe2b;
      }

      .cls-16 {
        fill: #1c6596;
      }

      .cls-17 {
        fill: #fce36b;
      }
    </style>
  </defs>
  <g class="cls-11">
    <g id="Layer_2" data-name="Layer 2">
      <g id="Capa_1" data-name="Capa 1">
        <g>
          <path class="cls-4" d="M736.96,683.71l-94.1-55.39c-3.32-68.2-12.52-161.29-36.89-242.32-4.88-16.2-19.55-27.08-36.5-27.08s-31.57,10.83-36.51,26.94c-9.45,30.78-17.25,66.96-23.31,108.17l-.85-1.84,11.39-236.14c.78-7.34,2.6-37.46-12.89-80.84-8.4-23.52-28.29-56.62-53.22-88.55-42.25-54.12-59.43-56.55-67.88-56.81-.74-.05-1.48-.06-2.22-.04-6.9.05-26.48,1.44-69.09,54.17-12.53,15.51-42.81,55.67-53.16,93.44-13.24,48.31-12.96,71.06-12.03,79.26l11.8,236.43-.43.93c-6.06-41.2-13.85-77.39-23.31-108.17-4.94-16.12-19.63-26.94-36.52-26.94s-31.61,10.88-36.49,27.08c-24.37,81.02-33.57,174.11-36.88,242.32l-94.11,55.39c-7.8,4.59-12.59,12.96-12.59,22.01v67.69c0,13.51,10.53,24.68,24.02,25.49l234.23,13.98,20.24,89.77c.78,3.45,2.23,6.59,4.2,9.32l-14.94,39.27c-2.98,7.85-1.91,16.66,2.85,23.57,4.26,6.18,10.99,10.13,18.37,10.9-2.52,12.14-4.54,26.76-4.73,42.87-.7,59.54,23.43,111.64,69.8,150.65,4.76,4.01,10.6,6,16.44,6,6.2,0,12.38-2.24,17.25-6.7,3.55-3.25,79.77-74.81,54.02-193.15,11.76-2.28,20.64-12.63,20.64-25.07,0-3.78-.82-7.38-2.3-10.61l-14.35-37.75c1.96-2.73,3.41-5.87,4.19-9.32l20.25-89.77,234.18-13.97c13.49-.81,24.02-11.98,24.02-25.49v-67.69c0-9.04-4.78-17.42-12.58-22.01Z"/>
          <path class="cls-8" d="M715.79,653.93l-94.11-55.4c-3.31-68.2-12.52-161.29-36.89-242.32-4.87-16.2-19.54-27.08-36.49-27.08s-31.56,10.83-36.51,26.94c-9.45,30.78-17.25,66.97-23.3,108.16l-.85-1.84,11.39-236.14c.77-7.34,2.6-37.46-12.89-80.84-8.4-23.52-28.29-56.62-53.22-88.55C390.66,2.74,373.48.31,365.03.05c-.74-.05-1.48-.06-2.22-.04-6.89.04-26.47,1.45-69.08,54.18-12.54,15.51-42.82,55.67-53.18,93.44-13.24,48.3-12.95,71.06-12.03,79.25l11.8,236.43-.43.92c-6.06-41.2-13.85-77.39-23.31-108.16-4.95-16.12-19.62-26.95-36.51-26.95s-31.62,10.88-36.49,27.08c-24.37,81.02-33.57,174.11-36.89,242.32l-94.1,55.4c-7.8,4.58-12.58,12.96-12.58,22v67.68c0,13.52,10.52,24.69,24.01,25.5l234.23,13.98,20.24,89.77c.78,3.45,2.23,6.59,4.19,9.32l-14.93,39.28c-2.98,7.84-1.92,16.66,2.85,23.57,4.26,6.18,10.99,10.14,18.37,10.9-2.52,12.14-4.54,26.76-4.73,42.87-.7,59.54,23.43,111.63,69.8,150.64,4.76,4,10.6,6,16.44,6,6.19,0,12.38-2.24,17.25-6.7,3.55-3.25,79.78-74.81,54.02-193.14,11.76-2.28,20.63-12.63,20.63-25.07,0-3.78-.82-7.38-2.3-10.6l-14.35-37.74c1.97-2.73,3.42-5.87,4.2-9.32l20.25-89.77,234.18-13.98c13.49-.8,24.02-11.98,24.02-25.5v-67.68c0-9.05-4.78-17.42-12.58-22Z"/>
          <g>
            <g>
              <polygon class="cls-13" points="447.3 436.02 447.3 717.99 702.83 717.99 702.83 675.94 504.15 558.98 447.3 436.02"/>
              <polygon class="cls-1" points="702.83 743.62 447.3 758.87 447.3 717.99 702.83 717.99 702.83 743.62"/>
              <polygon class="cls-13" points="281.06 436.02 281.06 717.99 25.53 717.99 25.53 675.94 224.21 558.98 281.06 436.02"/>
              <polygon class="cls-1" points="25.53 743.62 281.06 758.87 281.06 717.99 25.53 717.99 25.53 743.62"/>
              <polygon class="cls-8" points="504.15 558.98 447.3 436.02 447.3 501.38 504.15 579.63 702.83 675.94 504.15 558.98"/>
              <polygon class="cls-8" points="224.21 558.98 25.53 675.94 224.21 579.63 281.06 501.38 281.06 436.02 224.21 558.98"/>
            </g>
            <path class="cls-10" d="M504.15,558.98l92.63,54.53c-2.72-69.21-11.33-166.44-36.44-249.94-3.57-11.89-20.5-11.87-24.14,0-18.15,59.06-27.51,131.78-32.31,194.86l.26.56Z"/>
            <path class="cls-10" d="M224.21,558.98l.26-.56c-4.8-63.08-14.17-135.8-32.31-194.86-3.64-11.87-20.57-11.89-24.14,0-25.12,83.5-33.72,180.73-36.44,249.94l92.63-54.53Z"/>
            <path class="cls-5" d="M553.63,588.12c0-1.01.01-2.01.01-3.02,0-12.88-.35-25.75-1.1-38.61-.81-12.88-1.91-25.75-4.09-38.63-2.19,12.88-3.28,25.75-4.09,38.63-.7,11.83-1.04,23.68-1.08,35.53l10.36,6.1Z"/>
            <path class="cls-5" d="M185.1,582.02c-.05-11.85-.39-23.7-1.09-35.53-.81-12.88-1.9-25.75-4.09-38.63-2.19,12.88-3.28,25.75-4.09,38.63-.77,12.86-1.12,25.74-1.12,38.61,0,1.01.01,2.01.02,3.02l10.36-6.1Z"/>
            <path class="cls-16" d="M462.08,153.99c-16.55-46.34-82.41-128.49-98.7-128.46-16.3.03-83.78,76.21-98.21,128.83-14.42,52.64-11.2,70.23-11.2,70.23l219.58-.42s3.79-27.42-11.48-70.19Z"/>
            <path class="cls-7" d="M424.38,154.07c-10.24-46.36-50.92-128.55-60.97-128.53-10.05.02-51.62,76.15-60.47,128.76-8.86,52.61-6.86,70.22-6.86,70.22l135.45-.26s2.32-27.41-7.14-70.19Z"/>
            <polygon class="cls-13" points="412.72 867.24 315.68 867.24 291.62 930.53 436.79 930.53 412.72 867.24"/>
            <g>
              <polygon class="cls-13" points="307.22 862.48 285.85 767.75 258.98 229.36 468.54 228.96 442.56 767.75 421.2 862.48 307.22 862.48"/>
              <path class="cls-8" d="M463.54,233.74l-25.73,533.37-20.43,90.6h-106.35l-20.43-90.61-26.61-532.97,199.55-.39M473.55,224.18l-219.58.42,27.14,543.8,22.29,98.84h121.61l22.29-98.84,26.25-544.22h0Z"/>
            </g>
            <path class="cls-8" d="M281.61,224.6l20.3,543.8,16.69,98.84h90.99l16.68-98.84,19.63-544.22-164.3.42Z"/>
            <path class="cls-5" d="M447.3,768.4c-13.85-2.18-27.7-3.26-41.55-4.08-13.85-.76-27.71-1.12-41.55-1.12-13.85,0-27.7.35-41.55,1.1-13.85.81-27.7,1.91-41.55,4.1,13.85,2.18,27.7,3.28,41.55,4.09,13.03.71,26.05,1.06,39.08,1.09.08,23.94.54,67.08,2.62,93.66,0,0,2.64-45.41,2.56-93.67,12.95-.05,25.89-.39,38.84-1.1,13.85-.81,27.69-1.91,41.55-4.07Z"/>
            <g>
              <path class="cls-7" d="M364.21,264.16c-40.16,0-72.72,32.56-72.72,72.73s32.56,72.73,72.72,72.73,72.73-32.57,72.73-72.73-32.57-72.73-72.73-72.73ZM364.21,387.77c-28.1,0-50.87-22.78-50.87-50.87s22.78-50.88,50.87-50.88,50.88,22.78,50.88,50.88-22.78,50.87-50.88,50.87Z"/>
              <path class="cls-3" d="M364.21,279.18c-31.87,0-57.71,25.83-57.71,57.71s25.84,57.71,57.71,57.71,57.72-25.85,57.72-57.71-25.84-57.71-57.72-57.71ZM364.21,387.77c-28.1,0-50.87-22.78-50.87-50.87s22.78-50.88,50.87-50.88,50.88,22.78,50.88,50.88-22.78,50.87-50.88,50.87Z"/>
              <path class="cls-9" d="M415.08,336.89c0,28.09-22.78,50.87-50.88,50.87s-50.87-22.78-50.87-50.87,22.78-50.88,50.87-50.88,50.88,22.78,50.88,50.88Z"/>
              <g class="cls-6">
                <path class="cls-12" d="M325.85,370.29c-7.79-8.93-12.52-20.61-12.52-33.4,0-28.1,22.78-50.88,50.87-50.88,12.79,0,24.46,4.73,33.4,12.52-9.33-10.7-23.04-17.48-38.36-17.48-28.1,0-50.88,22.79-50.88,50.88,0,15.32,6.77,29.04,17.48,38.36Z"/>
                <path class="cls-12" d="M413.09,283.05c11.73,12.92,18.89,30.06,18.89,48.88,0,40.17-32.57,72.73-72.73,72.73-18.82,0-35.98-7.15-48.89-18.89,13.31,14.65,32.51,23.85,53.84,23.85,40.16,0,72.73-32.57,72.73-72.73,0-21.35-9.2-40.54-23.84-53.84Z"/>
              </g>
              <path class="cls-8" d="M325.44,369.83l89.42-37.68c-.91-9.81-4.6-18.8-10.27-26.19l-90.73,38.24c1.4,9.7,5.52,18.51,11.58,25.64Z"/>
              <path class="cls-8" d="M383.95,289.99l-67.08,28.27c-2.27,5.78-3.54,12.06-3.54,18.63,0,.6.02,1.2.04,1.8l87.62-36.93c-4.78-5.01-10.56-9.04-17.04-11.78Z"/>
              <path class="cls-2" d="M406.23,285.69c-13.41-9.65-29.81-14.37-45.85-12.94-15.84,1.27-31.23,8.41-42.04,20.03-11.19,11.28-17.74,26.86-18.36,42.84-.8,15.99,4.53,32.27,14.69,45.27-5.92-5.78-10.54-12.92-13.84-20.63-3.15-7.77-4.8-16.28-4.87-24.72-.21-17.03,6.84-33.96,18.6-46.37,11.97-12.21,28.54-19.93,45.66-20.41,8.39-.23,16.95,1.03,24.84,3.91,7.84,3.01,15.15,7.34,21.16,13.02Z"/>
            </g>
            <g>
              <path class="cls-15" d="M323.03,930.53h84.89c44.94,123.94-37.45,199.38-37.45,199.38-98.62-82.99-47.44-199.38-47.44-199.38Z"/>
              <path class="cls-17" d="M394.57,930.53h-58.26c-4.19,32.7-4.13,87.87,31.98,131.48,0,0,37.33-49.11,26.28-131.48Z"/>
              <path class="cls-14" d="M367.11,996.27s15.16-24.1,16.09-65.74h-35.29c.6,20.58,5.02,45.05,19.2,65.74Z"/>
            </g>
          </g>
        </g>
      </g>
    </g>
  </g>
</svg>