<?xml version="1.0" encoding="UTF-8"?>
<svg id="Layer_2" data-name="Layer 2" xmlns="http://www.w3.org/2000/svg" viewBox="0 0 171.61 122.4">
  <defs>
    <style>
      .cls-1 {
        fill: #2db5f0;
      }

      .cls-2 {
        fill: #53196b;
      }

      .cls-3 {
        fill: #0694c6;
      }

      .cls-4 {
        fill: #793891;
      }
    </style>
  </defs>
  <g id="OBJECTS">
    <g>
      <path class="cls-4" d="M125.03,51.87c-1.41-15.31-12.65-29.31-27.92-32.83-15.19-3.51-30.81,2.51-39.11,15.88-7.44,11.98-7.53,28.4.6,40.08,9.75,14.02,29.45,20.64,44.92,11.68.7-.41,1.37-.85,2.03-1.31.29-.14.59-.27.87-.42,11.94-6.05,19.84-19.7,18.61-33.08Z"/>
      <g>
        <path class="cls-2" d="M122.59,57.09c1.02-.48.71-.25-.42.2-.07.04-.15.07-.22.11.09-.04.14-.07.22-.11-.14.05-.28.11-.44.17-1.91.71-3.82,1.4-5.75,2.03-4.04,1.33-8.1,2.63-12.31,3.31-.21.03-.34.06-.42.08-.2,0-.52,0-1.03.02-1.7.05-3.38.16-5.08.15-2.53-.03-5.09-.17-7.6-.51.02-.03-1.67-.37-2.3-.51-1.34-.29-2.68-.62-4-1.01-1.29-.38-2.55-.83-3.82-1.27-.42-.15-.52-.16-.5-.13-.17-.08-.4-.2-.74-.37-2.32-1.14-4.6-2.34-6.77-3.74-1.07-.69-2.12-1.43-3.16-2.15-.46-.32-1.64-1.26-1.71-1.29-3.35-2.92-6.53-6.17-9.72-9.27-.61-.59-1.22-1.18-1.82-1.75-4.22,11.04-3.2,24.15,3.61,33.94,9.75,14.02,29.45,20.64,44.92,11.68.7-.41,1.37-.85,2.03-1.31.29-.14.59-.27.87-.42,10.76-5.46,18.21-17.08,18.69-29.11-.83.45-1.67.85-2.52,1.25Z"/>
        <path class="cls-2" d="M122.59,57.09c-.12.06-.27.13-.42.2,0,0,0,0,0,0,.14-.07.28-.14.42-.2Z"/>
      </g>
      <g>
        <path class="cls-3" d="M106.42,84.95c6.48-3.28,11.75-8.81,15.03-15.31-2.58.22-5.11,1.21-7.25,2.62-4.76,3.13-8.32,7.88-9.03,13.36.12-.09.25-.17.37-.25.29-.14.59-.27.87-.42Z"/>
        <path class="cls-3" d="M64.73,30.18c1.35,2.22,3.74,3.72,6.38,3.62,4.02-.15,6.35-3.57,7.43-7.06.27-.87.24-1.8-.01-2.68,0-.02,0-.04,0-.05.04-1.49-.81-3.02-2.06-3.89-4.93,1.72-9.46,4.49-13.25,8.25.3.72.85,1.35,1.51,1.81Z"/>
        <path class="cls-3" d="M81.31,39.69c.53.57,1.26.97,2.15,1.09,1.02.14,1.91-.1,2.73-.73.84-.65,1.58-1.78,1.45-2.9-.09-.79-.12-1.28-.53-1.98-.36-.61-.77-1-1.37-1.37-1.93-1.21-4.86-.09-5.37,2.19,0,.03-.01.06-.02.1.01-.03.03-.06.04-.09-.06.15-.12.3-.16.45-.36,1.3.15,2.51,1.08,3.24Z"/>
        <path class="cls-3" d="M61.93,58.68c.07-1.39-.21-2.77-.97-4.03-1.43-2.38-4.18-3.73-6.95-3.6-.49.02-.95.13-1.38.28-.48,5.44.19,10.97,2.05,16.08.93.16,1.89.02,2.68-.57.07-.05.13-.11.2-.16,1.02-.39,1.96-1,2.76-1.82,1.62-1.67,2.11-4,1.61-6.17Z"/>
        <path class="cls-3" d="M77.84,60.76c.09.14.19.28.28.42.2.35.42.7.67,1.02,4.11,5.45,12.62,5.12,17.03.13,2.64-2.99,2.96-7.22.96-10.66-1.77-3.03-5.52-4.31-8.86-4.28-3.16.03-6.69,1.07-8.94,3.39-2.61,2.7-3.13,6.77-1.15,9.97Z"/>
        <path class="cls-3" d="M113.96,46.05c.44,1.96,1.76,3.32,3.37,4.34.14.22.28.44.43.65,1.37,1.99,3.71,2.94,6.01,1.97.49-.21.91-.48,1.27-.8,0-.11,0-.23-.02-.34-.44-4.8-1.85-9.46-4.04-13.72-4.12.36-8.08,3.2-7.03,7.9Z"/>
        <path class="cls-3" d="M104.43,37.68c-.02-.08-.03-.15-.05-.23-.36-1.08-.81-2.04-1.55-2.93-.33-.39-.67-.77-1-1.16-1.02-1.24-3.02-1.59-4.5-1.19-1.48.41-2.9,1.68-3.23,3.23-.06.3-.14.59-.23.87-.68,1.41-.81,2.88-.19,4.36.48,1.14,1.34,1.88,2.15,2.76,1.07,1.15,2.67,1.57,4.18,1.37,1.62-.22,2.7-1.06,3.63-2.37.98-1.38,1.23-3.14.79-4.71Z"/>
        <path class="cls-3" d="M90.37,90.68c-1.9-5.22-6.34-8.78-11.91-9.7-1.64-.27-3.27-.29-4.89-.14-2.8-.26-5.58.18-8.08,1.58,6.99,5.71,15.99,8.87,24.87,8.25Z"/>
      </g>
      <path class="cls-1" d="M134.42,18.23c-7.7,0-15.49,4.63-22.11,8.1-1.88.98-.59,4.05,1.45,3.43,5.81-1.79,10.96-5.23,16.92-6.7,2.49-.62,7.01-1.66,7,2.22,0,3.63-4.68,7.47-7.05,9.77-12.08,11.73-24.78,23.03-38.82,32.37-9.95,6.62-20.2,12.87-30.74,18.49-5.83,3.11-11.79,6.12-18.03,8.3-2.42.85-8.82,3.56-11.32,1.65-5.8-4.42,25.36-21.1,21.5-25.86-.44-.54-1.26-.18-1.45.38.16-.47-2.81,1.35-3.11,1.56-1.85,1.32-3.65,2.73-5.47,4.09-2.92,2.2-5.75,4.56-8.43,7.05-3.47,3.22-11.13,9.53-7.2,14.88,6.01,8.19,24.24-2.46,30.4-5.54,12.77-6.39,25.06-13.9,36.9-21.88,7.75-5.22,15.19-11.01,22.21-17.16,4.05-3.55,7.82-7.41,11.84-11,3.62-3.23,7.35-6.52,10.22-10.47,3.96-5.44,3.65-13.69-4.7-13.7Z"/>
      <path class="cls-1" d="M168.43,5.34c-7.24-8.51-20.42-5.07-29.36-1.75-10.75,3.99-20.49,9.9-30.41,15.55-2.78,1.59-.3,5.83,2.51,4.29,7.34-4.01,14.57-8.18,22.17-11.69,7.53-3.48,17.67-8.03,26.18-5.95,20.15,4.92-7.73,30-13.76,35.05-16.45,13.79-34.64,25.48-52.79,36.87-12.92,8.11-25.67,16.48-38.54,24.67-11.44,7.28-25.18,15.41-39.19,15.26-7.61-.08-11.98-4.38-9.17-12.03,2.44-6.63,7.61-12.07,12.63-16.84,10.78-10.24,22.57-20.23,35.86-27,1.38-.71.38-2.69-1.01-2.4-7.36,1.53-13.68,6.06-19.59,10.51-5.63,4.25-11.14,8.72-16.4,13.43-7.6,6.8-21.8,20.31-16.37,32,5.17,11.13,22.54,6.69,31.07,3.42,15.52-5.95,28.94-16.32,42.59-25.57,23.52-15.93,47.92-30.41,70.59-47.59,9.43-7.14,35.06-25.99,22.96-40.21Z"/>
    </g>
  </g>
</svg>