<?xml version="1.0" encoding="UTF-8"?>
<svg id="Layer_2" data-name="Layer 2" xmlns="http://www.w3.org/2000/svg" viewBox="0 0 29.33 30.86">
  <defs>
    <style>
      .cls-1 {
        fill: #a7aed1;
      }
    </style>
  </defs>
  <g id="BACKGROUND">
    <path class="cls-1" d="M29.16,15.79c-2.6-2.24-5.32-4.34-8.09-6.38,1.23-2.93,2.58-5.8,4.27-8.5.33-.53-.32-1.13-.84-.84-3.01,1.7-5.93,3.53-8.78,5.47-1.92-1.37-3.84-2.74-5.75-4.14-.31-.23-.72.08-.73.42-.08,2.74.05,5.49.23,8.23C6.28,12.5,3.19,15.07.19,17.75c-.43.39-.06,1.03.44,1.07,3.14.23,6.26.11,9.38-.16.14,3.64.07,7.28-.59,10.91-.05.28.35.4.43.12,1-3.64,1.17-7.36,1.06-11.1,1.8-.17,3.6-.38,5.4-.6-1.76,4.22-3.72,8.33-6.54,12-.48.63.59,1.25,1.07.62,3-3.9,5.03-8.3,6.87-12.8,3.68-.46,7.36-.91,11.06-1.04.46-.02.79-.63.4-.97ZM23.1,2.32c-1.14,2.06-2.12,4.19-3.03,6.35-1.09-.79-2.18-1.58-3.27-2.36,2.06-1.39,4.16-2.72,6.31-3.99ZM10.19,2.77c1.52,1.15,3.06,2.28,4.6,3.41-1.5,1.04-2.98,2.12-4.44,3.22-.14-2.22-.23-4.43-.16-6.63ZM2.2,17.65c2.4-2.11,4.85-4.16,7.38-6.11.14,1.97.28,3.93.38,5.9-2.58.21-5.17.32-7.76.22ZM10.87,17.36c-.1-2.16-.27-4.32-.42-6.48,1.77-1.35,3.57-2.67,5.4-3.93,1.26.92,2.53,1.84,3.78,2.76-.96,2.32-1.86,4.67-2.8,6.99-1.99.24-3.98.47-5.97.65ZM20.64,10.46c2.26,1.68,4.49,3.41,6.64,5.23-3.03.15-6.06.49-9.07.85.81-2.03,1.6-4.06,2.43-6.08Z"/>
  </g>
</svg>