<?xml version="1.0" encoding="UTF-8"?>
<svg id="Layer_2" data-name="Layer 2" xmlns="http://www.w3.org/2000/svg" viewBox="0 0 18.4 28.16">
  <defs>
    <style>
      .cls-1 {
        fill: #437bb5;
      }
    </style>
  </defs>
  <g id="BACKGROUND">
    <path class="cls-1" d="M17.76,11.91c-4.29-2.54-6.59-6.64-8.74-10.97-.15-.31-.37-.49-.61-.59-.21-.38-.82-.52-1.06-.05-.03.06-.06.13-.09.19-.46.29-.78.83-.65,1.43-1.03,2.45-1.76,5.01-2.93,7.39C2.5,11.69.92,13.7.05,16.22c-.22.63.25,1.41.88,1.56,5.06,1.17,7.63,4.75,9.3,9.43.49,1.37,2.74,1.26,2.68-.36-.2-5.1,2.29-9.31,5.3-13.21.42-.55.08-1.42-.45-1.73ZM10.79,22.06c-1.81-2.97-4.33-5.24-7.83-6.36.92-2.12,2.27-4.01,3.14-6.17.7-1.75,1.14-3.59,1.56-5.43,1.95,3.65,4.18,6.9,7.64,9.23-1.99,2.72-3.66,5.58-4.51,8.73Z"/>
  </g>
</svg>