<?xml version="1.0" encoding="UTF-8"?>
<svg id="Layer_2" data-name="Layer 2" xmlns="http://www.w3.org/2000/svg" viewBox="0 0 38.89 37.75">
  <defs>
    <style>
      .cls-1 {
        fill: #6228a5;
      }

      .cls-2 {
        fill: #3b0687;
      }
    </style>
  </defs>
  <g id="OBJECTS">
    <g>
      <path class="cls-1" d="M38.37,23.93C41.52,11.32,29.82.26,17.69,0,10.68-.14,5.72,3.85,3.47,9.09c-1.4,1.6-2.47,3.57-3.06,6.03-1.68,7.01,2,13.99,7.32,18.41,10.2,8.47,27.34,3.67,30.65-9.59Z"/>
      <g>
        <path class="cls-2" d="M35.54,9.55c-2.5,5.16-5.49,10-9.56,14.21-2.97,3.07-6.15,6.01-9.48,8.73,2.32-3.36,4.25-6.94,5.78-10.19,2.77-5.86,5.19-12.26,6.78-18.82-1.59-.99-3.3-1.79-5.08-2.37-1.46,5.74-3.6,11.35-6.04,16.5-2.66,5.63-5.93,11.31-10.19,15.94,3.11,2.58,6.87,3.92,10.68,4.17,3.56-2.79,6.78-5.84,9.44-8.37,4.21-4.01,7.7-8.49,10.57-13.45-.54-2.28-1.55-4.41-2.89-6.34Z"/>
        <path class="cls-2" d="M15.88,8.63c2.62-2.39,4.91-5.04,6.94-7.87C21.15.31,19.42.04,17.69,0c-.11,0-.21,0-.31,0C12.88,5.6,7.37,10.21.88,13.57c-.17.5-.34,1-.47,1.54-.25,1.04-.37,2.07-.39,3.1,5.76-2.33,11.18-5.33,15.86-9.58Z"/>
      </g>
    </g>
  </g>
</svg>